<svg class="rich-terminal" viewBox="0 0 1385 904.0" xmlns="http://www.w3.org/2000/svg">
    <!-- Generated with Rich https://www.textualize.io -->
    <style>

    @font-face {
        font-family: "Fira Code";
        src: local("FiraCode-Regular"),
                url("https://cdnjs.cloudflare.com/ajax/libs/firacode/6.2.0/woff2/FiraCode-Regular.woff2") format("woff2"),
                url("https://cdnjs.cloudflare.com/ajax/libs/firacode/6.2.0/woff/FiraCode-Regular.woff") format("woff");
        font-style: normal;
        font-weight: 400;
    }
    @font-face {
        font-family: "Fira Code";
        src: local("FiraCode-Bold"),
                url("https://cdnjs.cloudflare.com/ajax/libs/firacode/6.2.0/woff2/FiraCode-Bold.woff2") format("woff2"),
                url("https://cdnjs.cloudflare.com/ajax/libs/firacode/6.2.0/woff/FiraCode-Bold.woff") format("woff");
        font-style: bold;
        font-weight: 700;
    }

    .terminal-41636382-matrix {
        font-family: Fira Code, monospace;
        font-size: 20px;
        line-height: 24.4px;
        font-variant-east-asian: full-width;
    }

    .terminal-41636382-title {
        font-size: 18px;
        font-weight: bold;
        font-family: arial;
    }

    .terminal-41636382-r1 { fill: #c5c8c6 }
.terminal-41636382-r2 { fill: #e0e0e0 }
.terminal-41636382-r3 { fill: #0178d4 }
.terminal-41636382-r4 { fill: #fea62b }
.terminal-41636382-r5 { fill: #4ebf71 }
.terminal-41636382-r6 { fill: #ffc473 }
.terminal-41636382-r7 { fill: #ffffff }
.terminal-41636382-r8 { fill: #ffc473;text-decoration: underline; }
.terminal-41636382-r9 { fill: #57a5e2 }
.terminal-41636382-r10 { fill: #ffffff;font-weight: bold }
.terminal-41636382-r11 { fill: #d17e92;font-weight: bold }
.terminal-41636382-r12 { fill: #9e9e9e }
.terminal-41636382-r13 { fill: #121212 }
.terminal-41636382-r14 { fill: #f4bb6e }
.terminal-41636382-r15 { fill: #cccccc }
.terminal-41636382-r16 { fill: #dcdcaa }
.terminal-41636382-r17 { fill: #b5cea8 }
.terminal-41636382-r18 { fill: #ce9178 }
.terminal-41636382-r19 { fill: #ffa62b;font-weight: bold }
.terminal-41636382-r20 { fill: #495259 }
    </style>

    <defs>
    <clipPath id="terminal-41636382-clip-terminal">
      <rect x="0" y="0" width="1365.3999999999999" height="853.0" />
    </clipPath>
    <clipPath id="terminal-41636382-line-0">
    <rect x="0" y="1.5" width="1366.4" height="24.65"/>
            </clipPath>
<clipPath id="terminal-41636382-line-1">
    <rect x="0" y="25.9" width="1366.4" height="24.65"/>
            </clipPath>
<clipPath id="terminal-41636382-line-2">
    <rect x="0" y="50.3" width="1366.4" height="24.65"/>
            </clipPath>
<clipPath id="terminal-41636382-line-3">
    <rect x="0" y="74.7" width="1366.4" height="24.65"/>
            </clipPath>
<clipPath id="terminal-41636382-line-4">
    <rect x="0" y="99.1" width="1366.4" height="24.65"/>
            </clipPath>
<clipPath id="terminal-41636382-line-5">
    <rect x="0" y="123.5" width="1366.4" height="24.65"/>
            </clipPath>
<clipPath id="terminal-41636382-line-6">
    <rect x="0" y="147.9" width="1366.4" height="24.65"/>
            </clipPath>
<clipPath id="terminal-41636382-line-7">
    <rect x="0" y="172.3" width="1366.4" height="24.65"/>
            </clipPath>
<clipPath id="terminal-41636382-line-8">
    <rect x="0" y="196.7" width="1366.4" height="24.65"/>
            </clipPath>
<clipPath id="terminal-41636382-line-9">
    <rect x="0" y="221.1" width="1366.4" height="24.65"/>
            </clipPath>
<clipPath id="terminal-41636382-line-10">
    <rect x="0" y="245.5" width="1366.4" height="24.65"/>
            </clipPath>
<clipPath id="terminal-41636382-line-11">
    <rect x="0" y="269.9" width="1366.4" height="24.65"/>
            </clipPath>
<clipPath id="terminal-41636382-line-12">
    <rect x="0" y="294.3" width="1366.4" height="24.65"/>
            </clipPath>
<clipPath id="terminal-41636382-line-13">
    <rect x="0" y="318.7" width="1366.4" height="24.65"/>
            </clipPath>
<clipPath id="terminal-41636382-line-14">
    <rect x="0" y="343.1" width="1366.4" height="24.65"/>
            </clipPath>
<clipPath id="terminal-41636382-line-15">
    <rect x="0" y="367.5" width="1366.4" height="24.65"/>
            </clipPath>
<clipPath id="terminal-41636382-line-16">
    <rect x="0" y="391.9" width="1366.4" height="24.65"/>
            </clipPath>
<clipPath id="terminal-41636382-line-17">
    <rect x="0" y="416.3" width="1366.4" height="24.65"/>
            </clipPath>
<clipPath id="terminal-41636382-line-18">
    <rect x="0" y="440.7" width="1366.4" height="24.65"/>
            </clipPath>
<clipPath id="terminal-41636382-line-19">
    <rect x="0" y="465.1" width="1366.4" height="24.65"/>
            </clipPath>
<clipPath id="terminal-41636382-line-20">
    <rect x="0" y="489.5" width="1366.4" height="24.65"/>
            </clipPath>
<clipPath id="terminal-41636382-line-21">
    <rect x="0" y="513.9" width="1366.4" height="24.65"/>
            </clipPath>
<clipPath id="terminal-41636382-line-22">
    <rect x="0" y="538.3" width="1366.4" height="24.65"/>
            </clipPath>
<clipPath id="terminal-41636382-line-23">
    <rect x="0" y="562.7" width="1366.4" height="24.65"/>
            </clipPath>
<clipPath id="terminal-41636382-line-24">
    <rect x="0" y="587.1" width="1366.4" height="24.65"/>
            </clipPath>
<clipPath id="terminal-41636382-line-25">
    <rect x="0" y="611.5" width="1366.4" height="24.65"/>
            </clipPath>
<clipPath id="terminal-41636382-line-26">
    <rect x="0" y="635.9" width="1366.4" height="24.65"/>
            </clipPath>
<clipPath id="terminal-41636382-line-27">
    <rect x="0" y="660.3" width="1366.4" height="24.65"/>
            </clipPath>
<clipPath id="terminal-41636382-line-28">
    <rect x="0" y="684.7" width="1366.4" height="24.65"/>
            </clipPath>
<clipPath id="terminal-41636382-line-29">
    <rect x="0" y="709.1" width="1366.4" height="24.65"/>
            </clipPath>
<clipPath id="terminal-41636382-line-30">
    <rect x="0" y="733.5" width="1366.4" height="24.65"/>
            </clipPath>
<clipPath id="terminal-41636382-line-31">
    <rect x="0" y="757.9" width="1366.4" height="24.65"/>
            </clipPath>
<clipPath id="terminal-41636382-line-32">
    <rect x="0" y="782.3" width="1366.4" height="24.65"/>
            </clipPath>
<clipPath id="terminal-41636382-line-33">
    <rect x="0" y="806.7" width="1366.4" height="24.65"/>
            </clipPath>
    </defs>

    <rect fill="#292929" stroke="rgba(255,255,255,0.35)" stroke-width="1" x="1" y="1" width="1383" height="902" rx="8"/><text class="terminal-41636382-title" fill="#c5c8c6" text-anchor="middle" x="691" y="27">Artifice&#160;Terminal</text>
            <g transform="translate(26,22)">
            <circle cx="0" cy="0" r="7" fill="#ff5f57"/>
            <circle cx="22" cy="0" r="7" fill="#febc2e"/>
            <circle cx="44" cy="0" r="7" fill="#28c840"/>
            </g>
        
    <g transform="translate(9, 41)" clip-path="url(#terminal-41636382-clip-terminal)">
    <rect fill="#242f38" x="0" y="1.5" width="12.2" height="24.65" shape-rendering="crispEdges"/><rect fill="#242f38" x="12.2" y="1.5" width="12.2" height="24.65" shape-rendering="crispEdges"/><rect fill="#242f38" x="24.4" y="1.5" width="61" height="24.65" shape-rendering="crispEdges"/><rect fill="#242f38" x="85.4" y="1.5" width="12.2" height="24.65" shape-rendering="crispEdges"/><rect fill="#242f38" x="97.6" y="1.5" width="463.6" height="24.65" shape-rendering="crispEdges"/><rect fill="#242f38" x="561.2" y="1.5" width="207.4" height="24.65" shape-rendering="crispEdges"/><rect fill="#242f38" x="768.6" y="1.5" width="475.8" height="24.65" shape-rendering="crispEdges"/><rect fill="#242f38" x="1244.4" y="1.5" width="12.2" height="24.65" shape-rendering="crispEdges"/><rect fill="#242f38" x="1256.6" y="1.5" width="0" height="24.65" shape-rendering="crispEdges"/><rect fill="#242f38" x="1256.6" y="1.5" width="97.6" height="24.65" shape-rendering="crispEdges"/><rect fill="#242f38" x="1354.2" y="1.5" width="12.2" height="24.65" shape-rendering="crispEdges"/><rect fill="#121212" x="0" y="25.9" width="1366.4" height="24.65" shape-rendering="crispEdges"/><rect fill="#121212" x="0" y="50.3" width="1366.4" height="24.65" shape-rendering="crispEdges"/><rect fill="#121212" x="0" y="74.7" width="1366.4" height="24.65" shape-rendering="crispEdges"/><rect fill="#121212" x="0" y="99.1" width="12.2" height="24.65" shape-rendering="crispEdges"/><rect fill="#121212" x="12.2" y="99.1" width="12.2" height="24.65" shape-rendering="crispEdges"/><rect fill="#0d0d0d" x="24.4" y="99.1" width="488" height="24.65" shape-rendering="crispEdges"/><rect fill="#0d0d0d" x="512.4" y="99.1" width="854" height="24.65" shape-rendering="crispEdges"/><rect fill="#121212" x="0" y="123.5" width="1366.4" height="24.65" shape-rendering="crispEdges"/><rect fill="#121212" x="0" y="147.9" width="12.2" height="24.65" shape-rendering="crispEdges"/><rect fill="#121212" x="12.2" y="147.9" width="12.2" height="24.65" shape-rendering="crispEdges"/><rect fill="#121212" x="24.4" y="147.9" width="1342" height="24.65" shape-rendering="crispEdges"/><rect fill="#121212" x="0" y="172.3" width="1366.4" height="24.65" shape-rendering="crispEdges"/><rect fill="#121212" x="0" y="196.7" width="12.2" height="24.65" shape-rendering="crispEdges"/><rect fill="#121212" x="12.2" y="196.7" width="12.2" height="24.65" shape-rendering="crispEdges"/><rect fill="#0d0d0d" x="24.4" y="196.7" width="36.6" height="24.65" shape-rendering="crispEdges"/><rect fill="#0d0d0d" x="61" y="196.7" width="12.2" height="24.65" shape-rendering="crispEdges"/><rect fill="#0d0d0d" x="73.2" y="196.7" width="109.8" height="24.65" shape-rendering="crispEdges"/><rect fill="#0d0d0d" x="183" y="196.7" width="12.2" height="24.65" shape-rendering="crispEdges"/><rect fill="#0d0d0d" x="195.2" y="196.7" width="12.2" height="24.65" shape-rendering="crispEdges"/><rect fill="#0d0d0d" x="207.4" y="196.7" width="24.4" height="24.65" shape-rendering="crispEdges"/><rect fill="#0d0d0d" x="231.8" y="196.7" width="1134.6" height="24.65" shape-rendering="crispEdges"/><rect fill="#121212" x="0" y="221.1" width="24.4" height="24.65" shape-rendering="crispEdges"/><rect fill="#0d0d0d" x="24.4" y="221.1" width="48.8" height="24.65" shape-rendering="crispEdges"/><rect fill="#0d0d0d" x="73.2" y="221.1" width="24.4" height="24.65" shape-rendering="crispEdges"/><rect fill="#0d0d0d" x="97.6" y="221.1" width="12.2" height="24.65" shape-rendering="crispEdges"/><rect fill="#0d0d0d" x="109.8" y="221.1" width="12.2" height="24.65" shape-rendering="crispEdges"/><rect fill="#0d0d0d" x="122" y="221.1" width="12.2" height="24.65" shape-rendering="crispEdges"/><rect fill="#0d0d0d" x="134.2" y="221.1" width="12.2" height="24.65" shape-rendering="crispEdges"/><rect fill="#0d0d0d" x="146.4" y="221.1" width="12.2" height="24.65" shape-rendering="crispEdges"/><rect fill="#0d0d0d" x="158.6" y="221.1" width="12.2" height="24.65" shape-rendering="crispEdges"/><rect fill="#0d0d0d" x="170.8" y="221.1" width="12.2" height="24.65" shape-rendering="crispEdges"/><rect fill="#0d0d0d" x="183" y="221.1" width="12.2" height="24.65" shape-rendering="crispEdges"/><rect fill="#0d0d0d" x="195.2" y="221.1" width="1171.2" height="24.65" shape-rendering="crispEdges"/><rect fill="#121212" x="0" y="245.5" width="24.4" height="24.65" shape-rendering="crispEdges"/><rect fill="#0d0d0d" x="24.4" y="245.5" width="97.6" height="24.65" shape-rendering="crispEdges"/><rect fill="#0d0d0d" x="122" y="245.5" width="73.2" height="24.65" shape-rendering="crispEdges"/><rect fill="#0d0d0d" x="195.2" y="245.5" width="12.2" height="24.65" shape-rendering="crispEdges"/><rect fill="#0d0d0d" x="207.4" y="245.5" width="12.2" height="24.65" shape-rendering="crispEdges"/><rect fill="#0d0d0d" x="219.6" y="245.5" width="1146.8" height="24.65" shape-rendering="crispEdges"/><rect fill="#121212" x="0" y="269.9" width="24.4" height="24.65" shape-rendering="crispEdges"/><rect fill="#0d0d0d" x="24.4" y="269.9" width="48.8" height="24.65" shape-rendering="crispEdges"/><rect fill="#0d0d0d" x="73.2" y="269.9" width="48.8" height="24.65" shape-rendering="crispEdges"/><rect fill="#0d0d0d" x="122" y="269.9" width="12.2" height="24.65" shape-rendering="crispEdges"/><rect fill="#0d0d0d" x="134.2" y="269.9" width="12.2" height="24.65" shape-rendering="crispEdges"/><rect fill="#0d0d0d" x="146.4" y="269.9" width="12.2" height="24.65" shape-rendering="crispEdges"/><rect fill="#0d0d0d" x="158.6" y="269.9" width="24.4" height="24.65" shape-rendering="crispEdges"/><rect fill="#0d0d0d" x="183" y="269.9" width="12.2" height="24.65" shape-rendering="crispEdges"/><rect fill="#0d0d0d" x="195.2" y="269.9" width="12.2" height="24.65" shape-rendering="crispEdges"/><rect fill="#0d0d0d" x="207.4" y="269.9" width="12.2" height="24.65" shape-rendering="crispEdges"/><rect fill="#0d0d0d" x="219.6" y="269.9" width="1146.8" height="24.65" shape-rendering="crispEdges"/><rect fill="#121212" x="0" y="294.3" width="24.4" height="24.65" shape-rendering="crispEdges"/><rect fill="#0d0d0d" x="24.4" y="294.3" width="97.6" height="24.65" shape-rendering="crispEdges"/><rect fill="#0d0d0d" x="122" y="294.3" width="73.2" height="24.65" shape-rendering="crispEdges"/><rect fill="#0d0d0d" x="195.2" y="294.3" width="12.2" height="24.65" shape-rendering="crispEdges"/><rect fill="#0d0d0d" x="207.4" y="294.3" width="12.2" height="24.65" shape-rendering="crispEdges"/><rect fill="#0d0d0d" x="219.6" y="294.3" width="1146.8" height="24.65" shape-rendering="crispEdges"/><rect fill="#121212" x="0" y="318.7" width="24.4" height="24.65" shape-rendering="crispEdges"/><rect fill="#0d0d0d" x="24.4" y="318.7" width="48.8" height="24.65" shape-rendering="crispEdges"/><rect fill="#0d0d0d" x="73.2" y="318.7" width="48.8" height="24.65" shape-rendering="crispEdges"/><rect fill="#0d0d0d" x="122" y="318.7" width="12.2" height="24.65" shape-rendering="crispEdges"/><rect fill="#0d0d0d" x="134.2" y="318.7" width="1232.2" height="24.65" shape-rendering="crispEdges"/><rect fill="#121212" x="0" y="343.1" width="24.4" height="24.65" shape-rendering="crispEdges"/><rect fill="#0d0d0d" x="24.4" y="343.1" width="97.6" height="24.65" shape-rendering="crispEdges"/><rect fill="#0d0d0d" x="122" y="343.1" width="12.2" height="24.65" shape-rendering="crispEdges"/><rect fill="#0d0d0d" x="134.2" y="343.1" width="24.4" height="24.65" shape-rendering="crispEdges"/><rect fill="#0d0d0d" x="158.6" y="343.1" width="12.2" height="24.65" shape-rendering="crispEdges"/><rect fill="#0d0d0d" x="170.8" y="343.1" width="12.2" height="24.65" shape-rendering="crispEdges"/><rect fill="#0d0d0d" x="183" y="343.1" width="12.2" height="24.65" shape-rendering="crispEdges"/><rect fill="#0d0d0d" x="195.2" y="343.1" width="12.2" height="24.65" shape-rendering="crispEdges"/><rect fill="#0d0d0d" x="207.4" y="343.1" width="12.2" height="24.65" shape-rendering="crispEdges"/><rect fill="#0d0d0d" x="219.6" y="343.1" width="24.4" height="24.65" shape-rendering="crispEdges"/><rect fill="#0d0d0d" x="244" y="343.1" width="12.2" height="24.65" shape-rendering="crispEdges"/><rect fill="#0d0d0d" x="256.2" y="343.1" width="1110.2" height="24.65" shape-rendering="crispEdges"/><rect fill="#121212" x="0" y="367.5" width="24.4" height="24.65" shape-rendering="crispEdges"/><rect fill="#0d0d0d" x="24.4" y="367.5" width="97.6" height="24.65" shape-rendering="crispEdges"/><rect fill="#0d0d0d" x="122" y="367.5" width="36.6" height="24.65" shape-rendering="crispEdges"/><rect fill="#0d0d0d" x="158.6" y="367.5" width="12.2" height="24.65" shape-rendering="crispEdges"/><rect fill="#0d0d0d" x="170.8" y="367.5" width="12.2" height="24.65" shape-rendering="crispEdges"/><rect fill="#0d0d0d" x="183" y="367.5" width="12.2" height="24.65" shape-rendering="crispEdges"/><rect fill="#0d0d0d" x="195.2" y="367.5" width="24.4" height="24.65" shape-rendering="crispEdges"/><rect fill="#0d0d0d" x="219.6" y="367.5" width="12.2" height="24.65" shape-rendering="crispEdges"/><rect fill="#0d0d0d" x="231.8" y="367.5" width="61" height="24.65" shape-rendering="crispEdges"/><rect fill="#0d0d0d" x="292.8" y="367.5" width="12.2" height="24.65" shape-rendering="crispEdges"/><rect fill="#0d0d0d" x="305" y="367.5" width="12.2" height="24.65" shape-rendering="crispEdges"/><rect fill="#0d0d0d" x="317.2" y="367.5" width="24.4" height="24.65" shape-rendering="crispEdges"/><rect fill="#0d0d0d" x="341.6" y="367.5" width="12.2" height="24.65" shape-rendering="crispEdges"/><rect fill="#0d0d0d" x="353.8" y="367.5" width="12.2" height="24.65" shape-rendering="crispEdges"/><rect fill="#0d0d0d" x="366" y="367.5" width="12.2" height="24.65" shape-rendering="crispEdges"/><rect fill="#0d0d0d" x="378.2" y="367.5" width="12.2" height="24.65" shape-rendering="crispEdges"/><rect fill="#0d0d0d" x="390.4" y="367.5" width="12.2" height="24.65" shape-rendering="crispEdges"/><rect fill="#0d0d0d" x="402.6" y="367.5" width="24.4" height="24.65" shape-rendering="crispEdges"/><rect fill="#0d0d0d" x="427" y="367.5" width="939.4" height="24.65" shape-rendering="crispEdges"/><rect fill="#121212" x="0" y="391.9" width="24.4" height="24.65" shape-rendering="crispEdges"/><rect fill="#0d0d0d" x="24.4" y="391.9" width="146.4" height="24.65" shape-rendering="crispEdges"/><rect fill="#0d0d0d" x="170.8" y="391.9" width="12.2" height="24.65" shape-rendering="crispEdges"/><rect fill="#0d0d0d" x="183" y="391.9" width="24.4" height="24.65" shape-rendering="crispEdges"/><rect fill="#0d0d0d" x="207.4" y="391.9" width="12.2" height="24.65" shape-rendering="crispEdges"/><rect fill="#0d0d0d" x="219.6" y="391.9" width="12.2" height="24.65" shape-rendering="crispEdges"/><rect fill="#0d0d0d" x="231.8" y="391.9" width="12.2" height="24.65" shape-rendering="crispEdges"/><rect fill="#0d0d0d" x="244" y="391.9" width="12.2" height="24.65" shape-rendering="crispEdges"/><rect fill="#0d0d0d" x="256.2" y="391.9" width="12.2" height="24.65" shape-rendering="crispEdges"/><rect fill="#0d0d0d" x="268.4" y="391.9" width="24.4" height="24.65" shape-rendering="crispEdges"/><rect fill="#0d0d0d" x="292.8" y="391.9" width="12.2" height="24.65" shape-rendering="crispEdges"/><rect fill="#0d0d0d" x="305" y="391.9" width="12.2" height="24.65" shape-rendering="crispEdges"/><rect fill="#0d0d0d" x="317.2" y="391.9" width="12.2" height="24.65" shape-rendering="crispEdges"/><rect fill="#0d0d0d" x="329.4" y="391.9" width="12.2" height="24.65" shape-rendering="crispEdges"/><rect fill="#0d0d0d" x="341.6" y="391.9" width="12.2" height="24.65" shape-rendering="crispEdges"/><rect fill="#0d0d0d" x="353.8" y="391.9" width="1012.6" height="24.65" shape-rendering="crispEdges"/><rect fill="#121212" x="0" y="416.3" width="24.4" height="24.65" shape-rendering="crispEdges"/><rect fill="#0d0d0d" x="24.4" y="416.3" width="97.6" height="24.65" shape-rendering="crispEdges"/><rect fill="#0d0d0d" x="122" y="416.3" width="73.2" height="24.65" shape-rendering="crispEdges"/><rect fill="#0d0d0d" x="195.2" y="416.3" width="12.2" height="24.65" shape-rendering="crispEdges"/><rect fill="#0d0d0d" x="207.4" y="416.3" width="12.2" height="24.65" shape-rendering="crispEdges"/><rect fill="#0d0d0d" x="219.6" y="416.3" width="1146.8" height="24.65" shape-rendering="crispEdges"/><rect fill="#121212" x="0" y="440.7" width="24.4" height="24.65" shape-rendering="crispEdges"/><rect fill="#0d0d0d" x="24.4" y="440.7" width="0" height="24.65" shape-rendering="crispEdges"/><rect fill="#0d0d0d" x="24.4" y="440.7" width="1342" height="24.65" shape-rendering="crispEdges"/><rect fill="#121212" x="0" y="465.1" width="24.4" height="24.65" shape-rendering="crispEdges"/><rect fill="#0d0d0d" x="24.4" y="465.1" width="109.8" height="24.65" shape-rendering="crispEdges"/><rect fill="#0d0d0d" x="134.2" y="465.1" width="1232.2" height="24.65" shape-rendering="crispEdges"/><rect fill="#121212" x="0" y="489.5" width="24.4" height="24.65" shape-rendering="crispEdges"/><rect fill="#0d0d0d" x="24.4" y="489.5" width="61" height="24.65" shape-rendering="crispEdges"/><rect fill="#0d0d0d" x="85.4" y="489.5" width="12.2" height="24.65" shape-rendering="crispEdges"/><rect fill="#0d0d0d" x="97.6" y="489.5" width="109.8" height="24.65" shape-rendering="crispEdges"/><rect fill="#0d0d0d" x="207.4" y="489.5" width="12.2" height="24.65" shape-rendering="crispEdges"/><rect fill="#0d0d0d" x="219.6" y="489.5" width="24.4" height="24.65" shape-rendering="crispEdges"/><rect fill="#0d0d0d" x="244" y="489.5" width="24.4" height="24.65" shape-rendering="crispEdges"/><rect fill="#0d0d0d" x="268.4" y="489.5" width="1098" height="24.65" shape-rendering="crispEdges"/><rect fill="#121212" x="0" y="513.9" width="24.4" height="24.65" shape-rendering="crispEdges"/><rect fill="#0d0d0d" x="24.4" y="513.9" width="61" height="24.65" shape-rendering="crispEdges"/><rect fill="#0d0d0d" x="85.4" y="513.9" width="24.4" height="24.65" shape-rendering="crispEdges"/><rect fill="#0d0d0d" x="109.8" y="513.9" width="109.8" height="24.65" shape-rendering="crispEdges"/><rect fill="#0d0d0d" x="219.6" y="513.9" width="12.2" height="24.65" shape-rendering="crispEdges"/><rect fill="#0d0d0d" x="231.8" y="513.9" width="12.2" height="24.65" shape-rendering="crispEdges"/><rect fill="#0d0d0d" x="244" y="513.9" width="24.4" height="24.65" shape-rendering="crispEdges"/><rect fill="#0d0d0d" x="268.4" y="513.9" width="36.6" height="24.65" shape-rendering="crispEdges"/><rect fill="#0d0d0d" x="305" y="513.9" width="12.2" height="24.65" shape-rendering="crispEdges"/><rect fill="#0d0d0d" x="317.2" y="513.9" width="12.2" height="24.65" shape-rendering="crispEdges"/><rect fill="#0d0d0d" x="329.4" y="513.9" width="12.2" height="24.65" shape-rendering="crispEdges"/><rect fill="#0d0d0d" x="341.6" y="513.9" width="24.4" height="24.65" shape-rendering="crispEdges"/><rect fill="#0d0d0d" x="366" y="513.9" width="12.2" height="24.65" shape-rendering="crispEdges"/><rect fill="#0d0d0d" x="378.2" y="513.9" width="61" height="24.65" shape-rendering="crispEdges"/><rect fill="#0d0d0d" x="439.2" y="513.9" width="12.2" height="24.65" shape-rendering="crispEdges"/><rect fill="#0d0d0d" x="451.4" y="513.9" width="24.4" height="24.65" shape-rendering="crispEdges"/><rect fill="#0d0d0d" x="475.8" y="513.9" width="36.6" height="24.65" shape-rendering="crispEdges"/><rect fill="#0d0d0d" x="512.4" y="513.9" width="854" height="24.65" shape-rendering="crispEdges"/><rect fill="#121212" x="0" y="538.3" width="1366.4" height="24.65" shape-rendering="crispEdges"/><rect fill="#121212" x="0" y="562.7" width="12.2" height="24.65" shape-rendering="crispEdges"/><rect fill="#121212" x="12.2" y="562.7" width="0" height="24.65" shape-rendering="crispEdges"/><rect fill="#121212" x="12.2" y="562.7" width="12.2" height="24.65" shape-rendering="crispEdges"/><rect fill="#121212" x="24.4" y="562.7" width="439.2" height="24.65" shape-rendering="crispEdges"/><rect fill="#121212" x="463.6" y="562.7" width="902.8" height="24.65" shape-rendering="crispEdges"/><rect fill="#121212" x="0" y="587.1" width="1366.4" height="24.65" shape-rendering="crispEdges"/><rect fill="#121212" x="0" y="611.5" width="12.2" height="24.65" shape-rendering="crispEdges"/><rect fill="#121212" x="12.2" y="611.5" width="12.2" height="24.65" shape-rendering="crispEdges"/><rect fill="#121212" x="24.4" y="611.5" width="951.6" height="24.65" shape-rendering="crispEdges"/><rect fill="#121212" x="976" y="611.5" width="390.4" height="24.65" shape-rendering="crispEdges"/><rect fill="#121212" x="0" y="635.9" width="24.4" height="24.65" shape-rendering="crispEdges"/><rect fill="#121212" x="24.4" y="635.9" width="1342" height="24.65" shape-rendering="crispEdges"/><rect fill="#121212" x="0" y="660.3" width="24.4" height="24.65" shape-rendering="crispEdges"/><rect fill="#121212" x="24.4" y="660.3" width="24.4" height="24.65" shape-rendering="crispEdges"/><rect fill="#241d13" x="48.8" y="660.3" width="219.6" height="24.65" shape-rendering="crispEdges"/><rect fill="#121212" x="268.4" y="660.3" width="341.6" height="24.65" shape-rendering="crispEdges"/><rect fill="#121212" x="610" y="660.3" width="756.4" height="24.65" shape-rendering="crispEdges"/><rect fill="#121212" x="0" y="684.7" width="24.4" height="24.65" shape-rendering="crispEdges"/><rect fill="#121212" x="24.4" y="684.7" width="24.4" height="24.65" shape-rendering="crispEdges"/><rect fill="#121212" x="48.8" y="684.7" width="390.4" height="24.65" shape-rendering="crispEdges"/><rect fill="#241d13" x="439.2" y="684.7" width="402.6" height="24.65" shape-rendering="crispEdges"/><rect fill="#121212" x="841.8" y="684.7" width="524.6" height="24.65" shape-rendering="crispEdges"/><rect fill="#121212" x="0" y="709.1" width="24.4" height="24.65" shape-rendering="crispEdges"/><rect fill="#121212" x="24.4" y="709.1" width="1342" height="24.65" shape-rendering="crispEdges"/><rect fill="#121212" x="0" y="733.5" width="24.4" height="24.65" shape-rendering="crispEdges"/><rect fill="#121212" x="24.4" y="733.5" width="1329.8" height="24.65" shape-rendering="crispEdges"/><rect fill="#121212" x="1354.2" y="733.5" width="12.2" height="24.65" shape-rendering="crispEdges"/><rect fill="#121212" x="0" y="757.9" width="24.4" height="24.65" shape-rendering="crispEdges"/><rect fill="#121212" x="24.4" y="757.9" width="292.8" height="24.65" shape-rendering="crispEdges"/><rect fill="#121212" x="317.2" y="757.9" width="1049.2" height="24.65" shape-rendering="crispEdges"/><rect fill="#121212" x="0" y="782.3" width="1366.4" height="24.65" shape-rendering="crispEdges"/><rect fill="#121212" x="0" y="806.7" width="12.2" height="24.65" shape-rendering="crispEdges"/><rect fill="#121212" x="12.2" y="806.7" width="36.6" height="24.65" shape-rendering="crispEdges"/><rect fill="#1b1b1b" x="48.8" y="806.7" width="24.4" height="24.65" shape-rendering="crispEdges"/><rect fill="#1b1b1b" x="73.2" y="806.7" width="12.2" height="24.65" shape-rendering="crispEdges"/><rect fill="#1b1b1b" x="85.4" y="806.7" width="12.2" height="24.65" shape-rendering="crispEdges"/><rect fill="#1b1b1b" x="97.6" y="806.7" width="109.8" height="24.65" shape-rendering="crispEdges"/><rect fill="#1b1b1b" x="207.4" y="806.7" width="12.2" height="24.65" shape-rendering="crispEdges"/><rect fill="#1b1b1b" x="219.6" y="806.7" width="24.4" height="24.65" shape-rendering="crispEdges"/><rect fill="#1b1b1b" x="244" y="806.7" width="12.2" height="24.65" shape-rendering="crispEdges"/><rect fill="#1b1b1b" x="256.2" y="806.7" width="12.2" height="24.65" shape-rendering="crispEdges"/><rect fill="#1b1b1b" x="268.4" y="806.7" width="12.2" height="24.65" shape-rendering="crispEdges"/><rect fill="#1b1b1b" x="280.6" y="806.7" width="61" height="24.65" shape-rendering="crispEdges"/><rect fill="#4f4f4f" x="341.6" y="806.7" width="12.2" height="24.65" shape-rendering="crispEdges"/><rect fill="#1b1b1b" x="353.8" y="806.7" width="24.4" height="24.65" shape-rendering="crispEdges"/><rect fill="#e0e0e0" x="378.2" y="806.7" width="12.2" height="24.65" shape-rendering="crispEdges"/><rect fill="#1b1b1b" x="390.4" y="806.7" width="12.2" height="24.65" shape-rendering="crispEdges"/><rect fill="#1b1b1b" x="402.6" y="806.7" width="963.8" height="24.65" shape-rendering="crispEdges"/><rect fill="#242f38" x="0" y="831.1" width="85.4" height="24.65" shape-rendering="crispEdges"/><rect fill="#242f38" x="85.4" y="831.1" width="158.6" height="24.65" shape-rendering="crispEdges"/><rect fill="#242f38" x="244" y="831.1" width="85.4" height="24.65" shape-rendering="crispEdges"/><rect fill="#242f38" x="329.4" y="831.1" width="195.2" height="24.65" shape-rendering="crispEdges"/><rect fill="#242f38" x="524.6" y="831.1" width="48.8" height="24.65" shape-rendering="crispEdges"/><rect fill="#242f38" x="573.4" y="831.1" width="183" height="24.65" shape-rendering="crispEdges"/><rect fill="#242f38" x="756.4" y="831.1" width="48.8" height="24.65" shape-rendering="crispEdges"/><rect fill="#242f38" x="805.2" y="831.1" width="134.2" height="24.65" shape-rendering="crispEdges"/><rect fill="#242f38" x="939.4" y="831.1" width="48.8" height="24.65" shape-rendering="crispEdges"/><rect fill="#242f38" x="988.2" y="831.1" width="158.6" height="24.65" shape-rendering="crispEdges"/><rect fill="#242f38" x="1146.8" y="831.1" width="48.8" height="24.65" shape-rendering="crispEdges"/><rect fill="#242f38" x="1195.6" y="831.1" width="24.4" height="24.65" shape-rendering="crispEdges"/><rect fill="#242f38" x="1220" y="831.1" width="12.2" height="24.65" shape-rendering="crispEdges"/><rect fill="#242f38" x="1232.2" y="831.1" width="24.4" height="24.65" shape-rendering="crispEdges"/><rect fill="#242f38" x="1256.6" y="831.1" width="97.6" height="24.65" shape-rendering="crispEdges"/><rect fill="#242f38" x="1354.2" y="831.1" width="12.2" height="24.65" shape-rendering="crispEdges"/>
    <g class="terminal-41636382-matrix">
    <text class="terminal-41636382-r2" x="12.2" y="20" textLength="12.2" clip-path="url(#terminal-41636382-line-0)">⭘</text><text class="terminal-41636382-r2" x="561.2" y="20" textLength="207.4" clip-path="url(#terminal-41636382-line-0)">Artifice&#160;Terminal</text><text class="terminal-41636382-r1" x="1366.4" y="20" textLength="12.2" clip-path="url(#terminal-41636382-line-0)">
</text><text class="terminal-41636382-r1" x="1366.4" y="44.4" textLength="12.2" clip-path="url(#terminal-41636382-line-1)">
</text><text class="terminal-41636382-r1" x="1366.4" y="68.8" textLength="12.2" clip-path="url(#terminal-41636382-line-2)">
</text><text class="terminal-41636382-r1" x="1366.4" y="93.2" textLength="12.2" clip-path="url(#terminal-41636382-line-3)">
</text><text class="terminal-41636382-r3" x="0" y="117.6" textLength="12.2" clip-path="url(#terminal-41636382-line-4)">?</text><text class="terminal-41636382-r2" x="24.4" y="117.6" textLength="488" clip-path="url(#terminal-41636382-line-4)">Write&#160;a&#160;function&#160;that&#160;computes&#160;fibonacci</text><text class="terminal-41636382-r1" x="1366.4" y="117.6" textLength="12.2" clip-path="url(#terminal-41636382-line-4)">
</text><text class="terminal-41636382-r1" x="1366.4" y="142" textLength="12.2" clip-path="url(#terminal-41636382-line-5)">
</text><text class="terminal-41636382-r1" x="1366.4" y="166.4" textLength="12.2" clip-path="url(#terminal-41636382-line-6)">
</text><text class="terminal-41636382-r1" x="1366.4" y="190.8" textLength="12.2" clip-path="url(#terminal-41636382-line-7)">
</text><text class="terminal-41636382-r5" x="0" y="215.2" textLength="12.2" clip-path="url(#terminal-41636382-line-8)">✓</text><text class="terminal-41636382-r6" x="24.4" y="215.2" textLength="36.6" clip-path="url(#terminal-41636382-line-8)">def</text><text class="terminal-41636382-r8" x="73.2" y="215.2" textLength="109.8" clip-path="url(#terminal-41636382-line-8)">fibonacci</text><text class="terminal-41636382-r7" x="183" y="215.2" textLength="12.2" clip-path="url(#terminal-41636382-line-8)">(</text><text class="terminal-41636382-r9" x="195.2" y="215.2" textLength="12.2" clip-path="url(#terminal-41636382-line-8)">n</text><text class="terminal-41636382-r7" x="207.4" y="215.2" textLength="24.4" clip-path="url(#terminal-41636382-line-8)">):</text><text class="terminal-41636382-r1" x="1366.4" y="215.2" textLength="12.2" clip-path="url(#terminal-41636382-line-8)">
</text><text class="terminal-41636382-r6" x="73.2" y="239.6" textLength="24.4" clip-path="url(#terminal-41636382-line-9)">if</text><text class="terminal-41636382-r9" x="109.8" y="239.6" textLength="12.2" clip-path="url(#terminal-41636382-line-9)">n</text><text class="terminal-41636382-r10" x="134.2" y="239.6" textLength="12.2" clip-path="url(#terminal-41636382-line-9)">&lt;</text><text class="terminal-41636382-r10" x="146.4" y="239.6" textLength="12.2" clip-path="url(#terminal-41636382-line-9)">=</text><text class="terminal-41636382-r6" x="170.8" y="239.6" textLength="12.2" clip-path="url(#terminal-41636382-line-9)">0</text><text class="terminal-41636382-r7" x="183" y="239.6" textLength="12.2" clip-path="url(#terminal-41636382-line-9)">:</text><text class="terminal-41636382-r1" x="1366.4" y="239.6" textLength="12.2" clip-path="url(#terminal-41636382-line-9)">
</text><text class="terminal-41636382-r6" x="122" y="264" textLength="73.2" clip-path="url(#terminal-41636382-line-10)">return</text><text class="terminal-41636382-r6" x="207.4" y="264" textLength="12.2" clip-path="url(#terminal-41636382-line-10)">0</text><text class="terminal-41636382-r1" x="1366.4" y="264" textLength="12.2" clip-path="url(#terminal-41636382-line-10)">
</text><text class="terminal-41636382-r6" x="73.2" y="288.4" textLength="48.8" clip-path="url(#terminal-41636382-line-11)">elif</text><text class="terminal-41636382-r9" x="134.2" y="288.4" textLength="12.2" clip-path="url(#terminal-41636382-line-11)">n</text><text class="terminal-41636382-r10" x="158.6" y="288.4" textLength="24.4" clip-path="url(#terminal-41636382-line-11)">==</text><text class="terminal-41636382-r6" x="195.2" y="288.4" textLength="12.2" clip-path="url(#terminal-41636382-line-11)">1</text><text class="terminal-41636382-r7" x="207.4" y="288.4" textLength="12.2" clip-path="url(#terminal-41636382-line-11)">:</text><text class="terminal-41636382-r1" x="1366.4" y="288.4" textLength="12.2" clip-path="url(#terminal-41636382-line-11)">
</text><text class="terminal-41636382-r6" x="122" y="312.8" textLength="73.2" clip-path="url(#terminal-41636382-line-12)">return</text><text class="terminal-41636382-r6" x="207.4" y="312.8" textLength="12.2" clip-path="url(#terminal-41636382-line-12)">1</text><text class="terminal-41636382-r1" x="1366.4" y="312.8" textLength="12.2" clip-path="url(#terminal-41636382-line-12)">
</text><text class="terminal-41636382-r6" x="73.2" y="337.2" textLength="48.8" clip-path="url(#terminal-41636382-line-13)">else</text><text class="terminal-41636382-r7" x="122" y="337.2" textLength="12.2" clip-path="url(#terminal-41636382-line-13)">:</text><text class="terminal-41636382-r1" x="1366.4" y="337.2" textLength="12.2" clip-path="url(#terminal-41636382-line-13)">
</text><text class="terminal-41636382-r9" x="122" y="361.6" textLength="12.2" clip-path="url(#terminal-41636382-line-14)">a</text><text class="terminal-41636382-r7" x="134.2" y="361.6" textLength="24.4" clip-path="url(#terminal-41636382-line-14)">,&#160;</text><text class="terminal-41636382-r9" x="158.6" y="361.6" textLength="12.2" clip-path="url(#terminal-41636382-line-14)">b</text><text class="terminal-41636382-r10" x="183" y="361.6" textLength="12.2" clip-path="url(#terminal-41636382-line-14)">=</text><text class="terminal-41636382-r6" x="207.4" y="361.6" textLength="12.2" clip-path="url(#terminal-41636382-line-14)">0</text><text class="terminal-41636382-r7" x="219.6" y="361.6" textLength="24.4" clip-path="url(#terminal-41636382-line-14)">,&#160;</text><text class="terminal-41636382-r6" x="244" y="361.6" textLength="12.2" clip-path="url(#terminal-41636382-line-14)">1</text><text class="terminal-41636382-r1" x="1366.4" y="361.6" textLength="12.2" clip-path="url(#terminal-41636382-line-14)">
</text><text class="terminal-41636382-r6" x="122" y="386" textLength="36.6" clip-path="url(#terminal-41636382-line-15)">for</text><text class="terminal-41636382-r9" x="170.8" y="386" textLength="12.2" clip-path="url(#terminal-41636382-line-15)">_</text><text class="terminal-41636382-r11" x="195.2" y="386" textLength="24.4" clip-path="url(#terminal-41636382-line-15)">in</text><text class="terminal-41636382-r6" x="231.8" y="386" textLength="61" clip-path="url(#terminal-41636382-line-15)">range</text><text class="terminal-41636382-r7" x="292.8" y="386" textLength="12.2" clip-path="url(#terminal-41636382-line-15)">(</text><text class="terminal-41636382-r6" x="305" y="386" textLength="12.2" clip-path="url(#terminal-41636382-line-15)">2</text><text class="terminal-41636382-r7" x="317.2" y="386" textLength="24.4" clip-path="url(#terminal-41636382-line-15)">,&#160;</text><text class="terminal-41636382-r9" x="341.6" y="386" textLength="12.2" clip-path="url(#terminal-41636382-line-15)">n</text><text class="terminal-41636382-r10" x="366" y="386" textLength="12.2" clip-path="url(#terminal-41636382-line-15)">+</text><text class="terminal-41636382-r6" x="390.4" y="386" textLength="12.2" clip-path="url(#terminal-41636382-line-15)">1</text><text class="terminal-41636382-r7" x="402.6" y="386" textLength="24.4" clip-path="url(#terminal-41636382-line-15)">):</text><text class="terminal-41636382-r1" x="1366.4" y="386" textLength="12.2" clip-path="url(#terminal-41636382-line-15)">
</text><text class="terminal-41636382-r9" x="170.8" y="410.4" textLength="12.2" clip-path="url(#terminal-41636382-line-16)">a</text><text class="terminal-41636382-r7" x="183" y="410.4" textLength="24.4" clip-path="url(#terminal-41636382-line-16)">,&#160;</text><text class="terminal-41636382-r9" x="207.4" y="410.4" textLength="12.2" clip-path="url(#terminal-41636382-line-16)">b</text><text class="terminal-41636382-r10" x="231.8" y="410.4" textLength="12.2" clip-path="url(#terminal-41636382-line-16)">=</text><text class="terminal-41636382-r9" x="256.2" y="410.4" textLength="12.2" clip-path="url(#terminal-41636382-line-16)">b</text><text class="terminal-41636382-r7" x="268.4" y="410.4" textLength="24.4" clip-path="url(#terminal-41636382-line-16)">,&#160;</text><text class="terminal-41636382-r9" x="292.8" y="410.4" textLength="12.2" clip-path="url(#terminal-41636382-line-16)">a</text><text class="terminal-41636382-r10" x="317.2" y="410.4" textLength="12.2" clip-path="url(#terminal-41636382-line-16)">+</text><text class="terminal-41636382-r9" x="341.6" y="410.4" textLength="12.2" clip-path="url(#terminal-41636382-line-16)">b</text><text class="terminal-41636382-r1" x="1366.4" y="410.4" textLength="12.2" clip-path="url(#terminal-41636382-line-16)">
</text><text class="terminal-41636382-r6" x="122" y="434.8" textLength="73.2" clip-path="url(#terminal-41636382-line-17)">return</text><text class="terminal-41636382-r9" x="207.4" y="434.8" textLength="12.2" clip-path="url(#terminal-41636382-line-17)">b</text><text class="terminal-41636382-r1" x="1366.4" y="434.8" textLength="12.2" clip-path="url(#terminal-41636382-line-17)">
</text><text class="terminal-41636382-r1" x="1366.4" y="459.2" textLength="12.2" clip-path="url(#terminal-41636382-line-18)">
</text><text class="terminal-41636382-r12" x="24.4" y="483.6" textLength="109.8" clip-path="url(#terminal-41636382-line-19)">#&#160;Test&#160;it</text><text class="terminal-41636382-r1" x="1366.4" y="483.6" textLength="12.2" clip-path="url(#terminal-41636382-line-19)">
</text><text class="terminal-41636382-r6" x="24.4" y="508" textLength="61" clip-path="url(#terminal-41636382-line-20)">print</text><text class="terminal-41636382-r7" x="85.4" y="508" textLength="12.2" clip-path="url(#terminal-41636382-line-20)">(</text><text class="terminal-41636382-r9" x="97.6" y="508" textLength="109.8" clip-path="url(#terminal-41636382-line-20)">fibonacci</text><text class="terminal-41636382-r7" x="207.4" y="508" textLength="12.2" clip-path="url(#terminal-41636382-line-20)">(</text><text class="terminal-41636382-r6" x="219.6" y="508" textLength="24.4" clip-path="url(#terminal-41636382-line-20)">10</text><text class="terminal-41636382-r7" x="244" y="508" textLength="24.4" clip-path="url(#terminal-41636382-line-20)">))</text><text class="terminal-41636382-r1" x="1366.4" y="508" textLength="12.2" clip-path="url(#terminal-41636382-line-20)">
</text><text class="terminal-41636382-r6" x="24.4" y="532.4" textLength="61" clip-path="url(#terminal-41636382-line-21)">print</text><text class="terminal-41636382-r7" x="85.4" y="532.4" textLength="24.4" clip-path="url(#terminal-41636382-line-21)">([</text><text class="terminal-41636382-r9" x="109.8" y="532.4" textLength="109.8" clip-path="url(#terminal-41636382-line-21)">fibonacci</text><text class="terminal-41636382-r7" x="219.6" y="532.4" textLength="12.2" clip-path="url(#terminal-41636382-line-21)">(</text><text class="terminal-41636382-r9" x="231.8" y="532.4" textLength="12.2" clip-path="url(#terminal-41636382-line-21)">i</text><text class="terminal-41636382-r7" x="244" y="532.4" textLength="24.4" clip-path="url(#terminal-41636382-line-21)">)&#160;</text><text class="terminal-41636382-r6" x="268.4" y="532.4" textLength="36.6" clip-path="url(#terminal-41636382-line-21)">for</text><text class="terminal-41636382-r9" x="317.2" y="532.4" textLength="12.2" clip-path="url(#terminal-41636382-line-21)">i</text><text class="terminal-41636382-r11" x="341.6" y="532.4" textLength="24.4" clip-path="url(#terminal-41636382-line-21)">in</text><text class="terminal-41636382-r6" x="378.2" y="532.4" textLength="61" clip-path="url(#terminal-41636382-line-21)">range</text><text class="terminal-41636382-r7" x="439.2" y="532.4" textLength="12.2" clip-path="url(#terminal-41636382-line-21)">(</text><text class="terminal-41636382-r6" x="451.4" y="532.4" textLength="24.4" clip-path="url(#terminal-41636382-line-21)">10</text><text class="terminal-41636382-r7" x="475.8" y="532.4" textLength="36.6" clip-path="url(#terminal-41636382-line-21)">)])</text><text class="terminal-41636382-r1" x="1366.4" y="532.4" textLength="12.2" clip-path="url(#terminal-41636382-line-21)">
</text><text class="terminal-41636382-r1" x="1366.4" y="556.8" textLength="12.2" clip-path="url(#terminal-41636382-line-22)">
</text><text class="terminal-41636382-r2" x="24.4" y="581.2" textLength="439.2" clip-path="url(#terminal-41636382-line-23)">55&#160;[0,&#160;1,&#160;1,&#160;2,&#160;3,&#160;5,&#160;8,&#160;13,&#160;21,&#160;34]</text><text class="terminal-41636382-r1" x="1366.4" y="581.2" textLength="12.2" clip-path="url(#terminal-41636382-line-23)">
</text><text class="terminal-41636382-r1" x="1366.4" y="605.6" textLength="12.2" clip-path="url(#terminal-41636382-line-24)">
</text><text class="terminal-41636382-r2" x="24.4" y="630" textLength="951.6" clip-path="url(#terminal-41636382-line-25)">I&#160;can&#160;see&#160;you&#x27;ve&#160;successfully&#160;executed&#160;a&#160;Fibonacci&#160;function!&#160;The&#160;output&#160;shows:</text><text class="terminal-41636382-r1" x="1366.4" y="630" textLength="12.2" clip-path="url(#terminal-41636382-line-25)">
</text><text class="terminal-41636382-r1" x="1366.4" y="654.4" textLength="12.2" clip-path="url(#terminal-41636382-line-26)">
</text><text class="terminal-41636382-r9" x="24.4" y="678.8" textLength="24.4" clip-path="url(#terminal-41636382-line-27)">•&#160;</text><text class="terminal-41636382-r14" x="48.8" y="678.8" textLength="219.6" clip-path="url(#terminal-41636382-line-27)">fibonacci(10)&#160;=&#160;55</text><text class="terminal-41636382-r2" x="268.4" y="678.8" textLength="341.6" clip-path="url(#terminal-41636382-line-27)">&#160;(the&#160;10th&#160;Fibonacci&#160;number)</text><text class="terminal-41636382-r1" x="1366.4" y="678.8" textLength="12.2" clip-path="url(#terminal-41636382-line-27)">
</text><text class="terminal-41636382-r9" x="24.4" y="703.2" textLength="24.4" clip-path="url(#terminal-41636382-line-28)">•&#160;</text><text class="terminal-41636382-r2" x="48.8" y="703.2" textLength="390.4" clip-path="url(#terminal-41636382-line-28)">The&#160;first&#160;10&#160;Fibonacci&#160;numbers:&#160;</text><text class="terminal-41636382-r14" x="439.2" y="703.2" textLength="402.6" clip-path="url(#terminal-41636382-line-28)">[0,&#160;1,&#160;1,&#160;2,&#160;3,&#160;5,&#160;8,&#160;13,&#160;21,&#160;34]</text><text class="terminal-41636382-r1" x="1366.4" y="703.2" textLength="12.2" clip-path="url(#terminal-41636382-line-28)">
</text><text class="terminal-41636382-r1" x="1366.4" y="727.6" textLength="12.2" clip-path="url(#terminal-41636382-line-29)">
</text><text class="terminal-41636382-r2" x="24.4" y="752" textLength="1329.8" clip-path="url(#terminal-41636382-line-30)">The&#160;function&#160;is&#160;working&#160;correctly.&#160;Is&#160;there&#160;anything&#160;else&#160;you&#x27;d&#160;like&#160;to&#160;do&#160;with&#160;this&#160;code&#160;or&#160;any&#160;other&#160;Python</text><text class="terminal-41636382-r1" x="1366.4" y="752" textLength="12.2" clip-path="url(#terminal-41636382-line-30)">
</text><text class="terminal-41636382-r2" x="24.4" y="776.4" textLength="292.8" clip-path="url(#terminal-41636382-line-31)">task&#160;you&#160;need&#160;help&#160;with?</text><text class="terminal-41636382-r1" x="1366.4" y="776.4" textLength="12.2" clip-path="url(#terminal-41636382-line-31)">
</text><text class="terminal-41636382-r1" x="1366.4" y="800.8" textLength="12.2" clip-path="url(#terminal-41636382-line-32)">
</text><text class="terminal-41636382-r5" x="0" y="825.2" textLength="12.2" clip-path="url(#terminal-41636382-line-33)">&gt;</text><text class="terminal-41636382-r2" x="48.8" y="825.2" textLength="24.4" clip-path="url(#terminal-41636382-line-33)">x&#160;</text><text class="terminal-41636382-r15" x="73.2" y="825.2" textLength="12.2" clip-path="url(#terminal-41636382-line-33)">=</text><text class="terminal-41636382-r16" x="97.6" y="825.2" textLength="109.8" clip-path="url(#terminal-41636382-line-33)">fibonacci</text><text class="terminal-41636382-r15" x="207.4" y="825.2" textLength="12.2" clip-path="url(#terminal-41636382-line-33)">(</text><text class="terminal-41636382-r17" x="219.6" y="825.2" textLength="24.4" clip-path="url(#terminal-41636382-line-33)">10</text><text class="terminal-41636382-r15" x="244" y="825.2" textLength="12.2" clip-path="url(#terminal-41636382-line-33)">)</text><text class="terminal-41636382-r15" x="256.2" y="825.2" textLength="12.2" clip-path="url(#terminal-41636382-line-33)">;</text><text class="terminal-41636382-r16" x="280.6" y="825.2" textLength="61" clip-path="url(#terminal-41636382-line-33)">print</text><text class="terminal-41636382-r2" x="341.6" y="825.2" textLength="12.2" clip-path="url(#terminal-41636382-line-33)">(</text><text class="terminal-41636382-r18" x="353.8" y="825.2" textLength="24.4" clip-path="url(#terminal-41636382-line-33)">&quot;&quot;</text><text class="terminal-41636382-r13" x="378.2" y="825.2" textLength="12.2" clip-path="url(#terminal-41636382-line-33)">)</text><text class="terminal-41636382-r1" x="1366.4" y="825.2" textLength="12.2" clip-path="url(#terminal-41636382-line-33)">
</text><text class="terminal-41636382-r19" x="0" y="849.6" textLength="85.4" clip-path="url(#terminal-41636382-line-34)">&#160;alt+↑&#160;</text><text class="terminal-41636382-r2" x="85.4" y="849.6" textLength="158.6" clip-path="url(#terminal-41636382-line-34)">History&#160;Back&#160;</text><text class="terminal-41636382-r19" x="244" y="849.6" textLength="85.4" clip-path="url(#terminal-41636382-line-34)">&#160;alt+↓&#160;</text><text class="terminal-41636382-r2" x="329.4" y="849.6" textLength="195.2" clip-path="url(#terminal-41636382-line-34)">History&#160;Forward&#160;</text><text class="terminal-41636382-r19" x="524.6" y="849.6" textLength="48.8" clip-path="url(#terminal-41636382-line-34)">&#160;^↑&#160;</text><text class="terminal-41636382-r2" x="573.4" y="849.6" textLength="183" clip-path="url(#terminal-41636382-line-34)">Previous&#160;Block&#160;</text><text class="terminal-41636382-r19" x="756.4" y="849.6" textLength="48.8" clip-path="url(#terminal-41636382-line-34)">&#160;^↓&#160;</text><text class="terminal-41636382-r2" x="805.2" y="849.6" textLength="134.2" clip-path="url(#terminal-41636382-line-34)">Next&#160;Block&#160;</text><text class="terminal-41636382-r19" x="939.4" y="849.6" textLength="48.8" clip-path="url(#terminal-41636382-line-34)">&#160;^l&#160;</text><text class="terminal-41636382-r2" x="988.2" y="849.6" textLength="158.6" clip-path="url(#terminal-41636382-line-34)">Clear&#160;Output&#160;</text><text class="terminal-41636382-r19" x="1146.8" y="849.6" textLength="48.8" clip-path="url(#terminal-41636382-line-34)">&#160;^o&#160;</text><text class="terminal-41636382-r2" x="1195.6" y="849.6" textLength="24.4" clip-path="url(#terminal-41636382-line-34)">To</text><text class="terminal-41636382-r20" x="1220" y="849.6" textLength="12.2" clip-path="url(#terminal-41636382-line-34)">▏</text><text class="terminal-41636382-r19" x="1232.2" y="849.6" textLength="24.4" clip-path="url(#terminal-41636382-line-34)">^p</text><text class="terminal-41636382-r2" x="1256.6" y="849.6" textLength="97.6" clip-path="url(#terminal-41636382-line-34)">&#160;palette</text>
    </g>
    </g>
</svg>
