<svg class="rich-terminal" viewBox="0 0 1580 879.5999999999999" xmlns="http://www.w3.org/2000/svg">
    <!-- Generated with Rich https://www.textualize.io -->
    <style>

    @font-face {
        font-family: "Fira Code";
        src: local("FiraCode-Regular"),
                url("https://cdnjs.cloudflare.com/ajax/libs/firacode/6.2.0/woff2/FiraCode-Regular.woff2") format("woff2"),
                url("https://cdnjs.cloudflare.com/ajax/libs/firacode/6.2.0/woff/FiraCode-Regular.woff") format("woff");
        font-style: normal;
        font-weight: 400;
    }
    @font-face {
        font-family: "Fira Code";
        src: local("FiraCode-Bold"),
                url("https://cdnjs.cloudflare.com/ajax/libs/firacode/6.2.0/woff2/FiraCode-Bold.woff2") format("woff2"),
                url("https://cdnjs.cloudflare.com/ajax/libs/firacode/6.2.0/woff/FiraCode-Bold.woff") format("woff");
        font-style: bold;
        font-weight: 700;
    }

    .terminal-2422889674-matrix {
        font-family: Fira Code, monospace;
        font-size: 20px;
        line-height: 24.4px;
        font-variant-east-asian: full-width;
    }

    .terminal-2422889674-title {
        font-size: 18px;
        font-weight: bold;
        font-family: arial;
    }

    .terminal-2422889674-r1 { fill: #0178d4 }
.terminal-2422889674-r2 { fill: #c5c8c6 }
.terminal-2422889674-r3 { fill: #004578 }
.terminal-2422889674-r4 { fill: #e0e0e0 }
.terminal-2422889674-r5 { fill: #999999 }
.terminal-2422889674-r6 { fill: #ffc473 }
.terminal-2422889674-r7 { fill: #ffffff }
.terminal-2422889674-r8 { fill: #57a5e2 }
.terminal-2422889674-r9 { fill: #d17e92;font-weight: bold }
.terminal-2422889674-r10 { fill: #8ad4a1 }
.terminal-2422889674-r11 { fill: #ffffff;font-weight: bold }
.terminal-2422889674-r12 { fill: #121212 }
.terminal-2422889674-r13 { fill: #666666 }
.terminal-2422889674-r14 { fill: #00ffff }
    </style>

    <defs>
    <clipPath id="terminal-2422889674-clip-terminal">
      <rect x="0" y="0" width="1560.6" height="828.5999999999999" />
    </clipPath>
    <clipPath id="terminal-2422889674-line-0">
    <rect x="0" y="1.5" width="1561.6" height="24.65"/>
            </clipPath>
<clipPath id="terminal-2422889674-line-1">
    <rect x="0" y="25.9" width="1561.6" height="24.65"/>
            </clipPath>
<clipPath id="terminal-2422889674-line-2">
    <rect x="0" y="50.3" width="1561.6" height="24.65"/>
            </clipPath>
<clipPath id="terminal-2422889674-line-3">
    <rect x="0" y="74.7" width="1561.6" height="24.65"/>
            </clipPath>
<clipPath id="terminal-2422889674-line-4">
    <rect x="0" y="99.1" width="1561.6" height="24.65"/>
            </clipPath>
<clipPath id="terminal-2422889674-line-5">
    <rect x="0" y="123.5" width="1561.6" height="24.65"/>
            </clipPath>
<clipPath id="terminal-2422889674-line-6">
    <rect x="0" y="147.9" width="1561.6" height="24.65"/>
            </clipPath>
<clipPath id="terminal-2422889674-line-7">
    <rect x="0" y="172.3" width="1561.6" height="24.65"/>
            </clipPath>
<clipPath id="terminal-2422889674-line-8">
    <rect x="0" y="196.7" width="1561.6" height="24.65"/>
            </clipPath>
<clipPath id="terminal-2422889674-line-9">
    <rect x="0" y="221.1" width="1561.6" height="24.65"/>
            </clipPath>
<clipPath id="terminal-2422889674-line-10">
    <rect x="0" y="245.5" width="1561.6" height="24.65"/>
            </clipPath>
<clipPath id="terminal-2422889674-line-11">
    <rect x="0" y="269.9" width="1561.6" height="24.65"/>
            </clipPath>
<clipPath id="terminal-2422889674-line-12">
    <rect x="0" y="294.3" width="1561.6" height="24.65"/>
            </clipPath>
<clipPath id="terminal-2422889674-line-13">
    <rect x="0" y="318.7" width="1561.6" height="24.65"/>
            </clipPath>
<clipPath id="terminal-2422889674-line-14">
    <rect x="0" y="343.1" width="1561.6" height="24.65"/>
            </clipPath>
<clipPath id="terminal-2422889674-line-15">
    <rect x="0" y="367.5" width="1561.6" height="24.65"/>
            </clipPath>
<clipPath id="terminal-2422889674-line-16">
    <rect x="0" y="391.9" width="1561.6" height="24.65"/>
            </clipPath>
<clipPath id="terminal-2422889674-line-17">
    <rect x="0" y="416.3" width="1561.6" height="24.65"/>
            </clipPath>
<clipPath id="terminal-2422889674-line-18">
    <rect x="0" y="440.7" width="1561.6" height="24.65"/>
            </clipPath>
<clipPath id="terminal-2422889674-line-19">
    <rect x="0" y="465.1" width="1561.6" height="24.65"/>
            </clipPath>
<clipPath id="terminal-2422889674-line-20">
    <rect x="0" y="489.5" width="1561.6" height="24.65"/>
            </clipPath>
<clipPath id="terminal-2422889674-line-21">
    <rect x="0" y="513.9" width="1561.6" height="24.65"/>
            </clipPath>
<clipPath id="terminal-2422889674-line-22">
    <rect x="0" y="538.3" width="1561.6" height="24.65"/>
            </clipPath>
<clipPath id="terminal-2422889674-line-23">
    <rect x="0" y="562.7" width="1561.6" height="24.65"/>
            </clipPath>
<clipPath id="terminal-2422889674-line-24">
    <rect x="0" y="587.1" width="1561.6" height="24.65"/>
            </clipPath>
<clipPath id="terminal-2422889674-line-25">
    <rect x="0" y="611.5" width="1561.6" height="24.65"/>
            </clipPath>
<clipPath id="terminal-2422889674-line-26">
    <rect x="0" y="635.9" width="1561.6" height="24.65"/>
            </clipPath>
<clipPath id="terminal-2422889674-line-27">
    <rect x="0" y="660.3" width="1561.6" height="24.65"/>
            </clipPath>
<clipPath id="terminal-2422889674-line-28">
    <rect x="0" y="684.7" width="1561.6" height="24.65"/>
            </clipPath>
<clipPath id="terminal-2422889674-line-29">
    <rect x="0" y="709.1" width="1561.6" height="24.65"/>
            </clipPath>
<clipPath id="terminal-2422889674-line-30">
    <rect x="0" y="733.5" width="1561.6" height="24.65"/>
            </clipPath>
<clipPath id="terminal-2422889674-line-31">
    <rect x="0" y="757.9" width="1561.6" height="24.65"/>
            </clipPath>
<clipPath id="terminal-2422889674-line-32">
    <rect x="0" y="782.3" width="1561.6" height="24.65"/>
            </clipPath>
    </defs>

    <rect fill="#292929" stroke="rgba(255,255,255,0.35)" stroke-width="1" x="1" y="1" width="1578" height="877.6" rx="8"/><text class="terminal-2422889674-title" fill="#c5c8c6" text-anchor="middle" x="789" y="27">Artifice&#160;Terminal</text>
            <g transform="translate(26,22)">
            <circle cx="0" cy="0" r="7" fill="#ff5f57"/>
            <circle cx="22" cy="0" r="7" fill="#febc2e"/>
            <circle cx="44" cy="0" r="7" fill="#28c840"/>
            </g>
        
    <g transform="translate(9, 41)" clip-path="url(#terminal-2422889674-clip-terminal)">
    <rect fill="#121212" x="0" y="1.5" width="134.2" height="24.65" shape-rendering="crispEdges"/><rect fill="#121212" x="134.2" y="1.5" width="1427.4" height="24.65" shape-rendering="crispEdges"/><rect fill="#121212" x="0" y="25.9" width="12.2" height="24.65" shape-rendering="crispEdges"/><rect fill="#121212" x="12.2" y="25.9" width="12.2" height="24.65" shape-rendering="crispEdges"/><rect fill="#121212" x="24.4" y="25.9" width="12.2" height="24.65" shape-rendering="crispEdges"/><rect fill="#0f212f" x="36.6" y="25.9" width="231.8" height="24.65" shape-rendering="crispEdges"/><rect fill="#0f212f" x="268.4" y="25.9" width="1293.2" height="24.65" shape-rendering="crispEdges"/><rect fill="#121212" x="0" y="50.3" width="12.2" height="24.65" shape-rendering="crispEdges"/><rect fill="#121212" x="12.2" y="50.3" width="1549.4" height="24.65" shape-rendering="crispEdges"/><rect fill="#121212" x="0" y="74.7" width="12.2" height="24.65" shape-rendering="crispEdges"/><rect fill="#121212" x="12.2" y="74.7" width="24.4" height="24.65" shape-rendering="crispEdges"/><rect fill="#0d0d0d" x="36.6" y="74.7" width="512.4" height="24.65" shape-rendering="crispEdges"/><rect fill="#0d0d0d" x="549" y="74.7" width="1012.6" height="24.65" shape-rendering="crispEdges"/><rect fill="#121212" x="0" y="99.1" width="12.2" height="24.65" shape-rendering="crispEdges"/><rect fill="#121212" x="12.2" y="99.1" width="1549.4" height="24.65" shape-rendering="crispEdges"/><rect fill="#121212" x="0" y="123.5" width="12.2" height="24.65" shape-rendering="crispEdges"/><rect fill="#121212" x="12.2" y="123.5" width="12.2" height="24.65" shape-rendering="crispEdges"/><rect fill="#121212" x="24.4" y="123.5" width="12.2" height="24.65" shape-rendering="crispEdges"/><rect fill="#000000" x="36.6" y="123.5" width="366" height="24.65" shape-rendering="crispEdges"/><rect fill="#000000" x="402.6" y="123.5" width="1159" height="24.65" shape-rendering="crispEdges"/><rect fill="#121212" x="0" y="147.9" width="12.2" height="24.65" shape-rendering="crispEdges"/><rect fill="#121212" x="12.2" y="147.9" width="24.4" height="24.65" shape-rendering="crispEdges"/><rect fill="#000000" x="36.6" y="147.9" width="36.6" height="24.65" shape-rendering="crispEdges"/><rect fill="#000000" x="73.2" y="147.9" width="12.2" height="24.65" shape-rendering="crispEdges"/><rect fill="#000000" x="85.4" y="147.9" width="12.2" height="24.65" shape-rendering="crispEdges"/><rect fill="#000000" x="97.6" y="147.9" width="12.2" height="24.65" shape-rendering="crispEdges"/><rect fill="#000000" x="109.8" y="147.9" width="24.4" height="24.65" shape-rendering="crispEdges"/><rect fill="#000000" x="134.2" y="147.9" width="12.2" height="24.65" shape-rendering="crispEdges"/><rect fill="#000000" x="146.4" y="147.9" width="61" height="24.65" shape-rendering="crispEdges"/><rect fill="#000000" x="207.4" y="147.9" width="12.2" height="24.65" shape-rendering="crispEdges"/><rect fill="#000000" x="219.6" y="147.9" width="12.2" height="24.65" shape-rendering="crispEdges"/><rect fill="#000000" x="231.8" y="147.9" width="24.4" height="24.65" shape-rendering="crispEdges"/><rect fill="#000000" x="256.2" y="147.9" width="12.2" height="24.65" shape-rendering="crispEdges"/><rect fill="#000000" x="268.4" y="147.9" width="24.4" height="24.65" shape-rendering="crispEdges"/><rect fill="#000000" x="292.8" y="147.9" width="1268.8" height="24.65" shape-rendering="crispEdges"/><rect fill="#121212" x="0" y="172.3" width="12.2" height="24.65" shape-rendering="crispEdges"/><rect fill="#121212" x="12.2" y="172.3" width="24.4" height="24.65" shape-rendering="crispEdges"/><rect fill="#000000" x="36.6" y="172.3" width="48.8" height="24.65" shape-rendering="crispEdges"/><rect fill="#000000" x="85.4" y="172.3" width="61" height="24.65" shape-rendering="crispEdges"/><rect fill="#000000" x="146.4" y="172.3" width="12.2" height="24.65" shape-rendering="crispEdges"/><rect fill="#000000" x="158.6" y="172.3" width="12.2" height="24.65" shape-rendering="crispEdges"/><rect fill="#000000" x="170.8" y="172.3" width="12.2" height="24.65" shape-rendering="crispEdges"/><rect fill="#000000" x="183" y="172.3" width="12.2" height="24.65" shape-rendering="crispEdges"/><rect fill="#000000" x="195.2" y="172.3" width="12.2" height="24.65" shape-rendering="crispEdges"/><rect fill="#000000" x="207.4" y="172.3" width="12.2" height="24.65" shape-rendering="crispEdges"/><rect fill="#000000" x="219.6" y="172.3" width="12.2" height="24.65" shape-rendering="crispEdges"/><rect fill="#000000" x="231.8" y="172.3" width="12.2" height="24.65" shape-rendering="crispEdges"/><rect fill="#000000" x="244" y="172.3" width="12.2" height="24.65" shape-rendering="crispEdges"/><rect fill="#000000" x="256.2" y="172.3" width="1305.4" height="24.65" shape-rendering="crispEdges"/><rect fill="#121212" x="0" y="196.7" width="12.2" height="24.65" shape-rendering="crispEdges"/><rect fill="#121212" x="12.2" y="196.7" width="1549.4" height="24.65" shape-rendering="crispEdges"/><rect fill="#121212" x="0" y="221.1" width="12.2" height="24.65" shape-rendering="crispEdges"/><rect fill="#121212" x="12.2" y="221.1" width="24.4" height="24.65" shape-rendering="crispEdges"/><rect fill="#0d0d0d" x="36.6" y="221.1" width="1476.2" height="24.65" shape-rendering="crispEdges"/><rect fill="#0d0d0d" x="1512.8" y="221.1" width="48.8" height="24.65" shape-rendering="crispEdges"/><rect fill="#121212" x="0" y="245.5" width="12.2" height="24.65" shape-rendering="crispEdges"/><rect fill="#121212" x="12.2" y="245.5" width="24.4" height="24.65" shape-rendering="crispEdges"/><rect fill="#0d0d0d" x="36.6" y="245.5" width="73.2" height="24.65" shape-rendering="crispEdges"/><rect fill="#0d0d0d" x="109.8" y="245.5" width="1451.8" height="24.65" shape-rendering="crispEdges"/><rect fill="#121212" x="0" y="269.9" width="12.2" height="24.65" shape-rendering="crispEdges"/><rect fill="#121212" x="12.2" y="269.9" width="1549.4" height="24.65" shape-rendering="crispEdges"/><rect fill="#121212" x="0" y="294.3" width="12.2" height="24.65" shape-rendering="crispEdges"/><rect fill="#121212" x="12.2" y="294.3" width="12.2" height="24.65" shape-rendering="crispEdges"/><rect fill="#121212" x="24.4" y="294.3" width="12.2" height="24.65" shape-rendering="crispEdges"/><rect fill="#0f212f" x="36.6" y="294.3" width="109.8" height="24.65" shape-rendering="crispEdges"/><rect fill="#0f212f" x="146.4" y="294.3" width="1415.2" height="24.65" shape-rendering="crispEdges"/><rect fill="#121212" x="0" y="318.7" width="12.2" height="24.65" shape-rendering="crispEdges"/><rect fill="#121212" x="12.2" y="318.7" width="1549.4" height="24.65" shape-rendering="crispEdges"/><rect fill="#121212" x="0" y="343.1" width="12.2" height="24.65" shape-rendering="crispEdges"/><rect fill="#121212" x="12.2" y="343.1" width="24.4" height="24.65" shape-rendering="crispEdges"/><rect fill="#000000" x="36.6" y="343.1" width="366" height="24.65" shape-rendering="crispEdges"/><rect fill="#000000" x="402.6" y="343.1" width="1159" height="24.65" shape-rendering="crispEdges"/><rect fill="#121212" x="0" y="367.5" width="12.2" height="24.65" shape-rendering="crispEdges"/><rect fill="#121212" x="12.2" y="367.5" width="24.4" height="24.65" shape-rendering="crispEdges"/><rect fill="#000000" x="36.6" y="367.5" width="36.6" height="24.65" shape-rendering="crispEdges"/><rect fill="#000000" x="73.2" y="367.5" width="12.2" height="24.65" shape-rendering="crispEdges"/><rect fill="#000000" x="85.4" y="367.5" width="12.2" height="24.65" shape-rendering="crispEdges"/><rect fill="#000000" x="97.6" y="367.5" width="12.2" height="24.65" shape-rendering="crispEdges"/><rect fill="#000000" x="109.8" y="367.5" width="24.4" height="24.65" shape-rendering="crispEdges"/><rect fill="#000000" x="134.2" y="367.5" width="12.2" height="24.65" shape-rendering="crispEdges"/><rect fill="#000000" x="146.4" y="367.5" width="61" height="24.65" shape-rendering="crispEdges"/><rect fill="#000000" x="207.4" y="367.5" width="12.2" height="24.65" shape-rendering="crispEdges"/><rect fill="#000000" x="219.6" y="367.5" width="12.2" height="24.65" shape-rendering="crispEdges"/><rect fill="#000000" x="231.8" y="367.5" width="24.4" height="24.65" shape-rendering="crispEdges"/><rect fill="#000000" x="256.2" y="367.5" width="12.2" height="24.65" shape-rendering="crispEdges"/><rect fill="#000000" x="268.4" y="367.5" width="24.4" height="24.65" shape-rendering="crispEdges"/><rect fill="#000000" x="292.8" y="367.5" width="1268.8" height="24.65" shape-rendering="crispEdges"/><rect fill="#121212" x="0" y="391.9" width="12.2" height="24.65" shape-rendering="crispEdges"/><rect fill="#121212" x="12.2" y="391.9" width="24.4" height="24.65" shape-rendering="crispEdges"/><rect fill="#000000" x="36.6" y="391.9" width="48.8" height="24.65" shape-rendering="crispEdges"/><rect fill="#000000" x="85.4" y="391.9" width="61" height="24.65" shape-rendering="crispEdges"/><rect fill="#000000" x="146.4" y="391.9" width="12.2" height="24.65" shape-rendering="crispEdges"/><rect fill="#000000" x="158.6" y="391.9" width="12.2" height="24.65" shape-rendering="crispEdges"/><rect fill="#000000" x="170.8" y="391.9" width="12.2" height="24.65" shape-rendering="crispEdges"/><rect fill="#000000" x="183" y="391.9" width="12.2" height="24.65" shape-rendering="crispEdges"/><rect fill="#000000" x="195.2" y="391.9" width="12.2" height="24.65" shape-rendering="crispEdges"/><rect fill="#000000" x="207.4" y="391.9" width="12.2" height="24.65" shape-rendering="crispEdges"/><rect fill="#000000" x="219.6" y="391.9" width="12.2" height="24.65" shape-rendering="crispEdges"/><rect fill="#000000" x="231.8" y="391.9" width="12.2" height="24.65" shape-rendering="crispEdges"/><rect fill="#000000" x="244" y="391.9" width="12.2" height="24.65" shape-rendering="crispEdges"/><rect fill="#000000" x="256.2" y="391.9" width="1305.4" height="24.65" shape-rendering="crispEdges"/><rect fill="#121212" x="0" y="416.3" width="12.2" height="24.65" shape-rendering="crispEdges"/><rect fill="#121212" x="12.2" y="416.3" width="1549.4" height="24.65" shape-rendering="crispEdges"/><rect fill="#121212" x="0" y="440.7" width="12.2" height="24.65" shape-rendering="crispEdges"/><rect fill="#121212" x="12.2" y="440.7" width="12.2" height="24.65" shape-rendering="crispEdges"/><rect fill="#121212" x="24.4" y="440.7" width="0" height="24.65" shape-rendering="crispEdges"/><rect fill="#121212" x="24.4" y="440.7" width="12.2" height="24.65" shape-rendering="crispEdges"/><rect fill="#0d0d0d" x="36.6" y="440.7" width="12.2" height="24.65" shape-rendering="crispEdges"/><rect fill="#0d0d0d" x="48.8" y="440.7" width="1512.8" height="24.65" shape-rendering="crispEdges"/><rect fill="#121212" x="0" y="465.1" width="12.2" height="24.65" shape-rendering="crispEdges"/><rect fill="#121212" x="12.2" y="465.1" width="24.4" height="24.65" shape-rendering="crispEdges"/><rect fill="#0d0d0d" x="36.6" y="465.1" width="24.4" height="24.65" shape-rendering="crispEdges"/><rect fill="#0d0d0d" x="61" y="465.1" width="1500.6" height="24.65" shape-rendering="crispEdges"/><rect fill="#121212" x="0" y="489.5" width="12.2" height="24.65" shape-rendering="crispEdges"/><rect fill="#121212" x="12.2" y="489.5" width="24.4" height="24.65" shape-rendering="crispEdges"/><rect fill="#0d0d0d" x="36.6" y="489.5" width="36.6" height="24.65" shape-rendering="crispEdges"/><rect fill="#0d0d0d" x="73.2" y="489.5" width="1488.4" height="24.65" shape-rendering="crispEdges"/><rect fill="#121212" x="0" y="513.9" width="12.2" height="24.65" shape-rendering="crispEdges"/><rect fill="#121212" x="12.2" y="513.9" width="24.4" height="24.65" shape-rendering="crispEdges"/><rect fill="#0d0d0d" x="36.6" y="513.9" width="48.8" height="24.65" shape-rendering="crispEdges"/><rect fill="#0d0d0d" x="85.4" y="513.9" width="1476.2" height="24.65" shape-rendering="crispEdges"/><rect fill="#121212" x="0" y="538.3" width="12.2" height="24.65" shape-rendering="crispEdges"/><rect fill="#121212" x="12.2" y="538.3" width="24.4" height="24.65" shape-rendering="crispEdges"/><rect fill="#0d0d0d" x="36.6" y="538.3" width="61" height="24.65" shape-rendering="crispEdges"/><rect fill="#0d0d0d" x="97.6" y="538.3" width="1464" height="24.65" shape-rendering="crispEdges"/><rect fill="#121212" x="0" y="562.7" width="12.2" height="24.65" shape-rendering="crispEdges"/><rect fill="#121212" x="12.2" y="562.7" width="1549.4" height="24.65" shape-rendering="crispEdges"/><rect fill="#121212" x="0" y="587.1" width="12.2" height="24.65" shape-rendering="crispEdges"/><rect fill="#121212" x="12.2" y="587.1" width="24.4" height="24.65" shape-rendering="crispEdges"/><rect fill="#0d0d0d" x="36.6" y="587.1" width="1500.6" height="24.65" shape-rendering="crispEdges"/><rect fill="#0d0d0d" x="1537.2" y="587.1" width="24.4" height="24.65" shape-rendering="crispEdges"/><rect fill="#121212" x="0" y="611.5" width="12.2" height="24.65" shape-rendering="crispEdges"/><rect fill="#121212" x="12.2" y="611.5" width="24.4" height="24.65" shape-rendering="crispEdges"/><rect fill="#0d0d0d" x="36.6" y="611.5" width="475.8" height="24.65" shape-rendering="crispEdges"/><rect fill="#0d0d0d" x="512.4" y="611.5" width="1049.2" height="24.65" shape-rendering="crispEdges"/><rect fill="#121212" x="0" y="635.9" width="12.2" height="24.65" shape-rendering="crispEdges"/><rect fill="#121212" x="12.2" y="635.9" width="24.4" height="24.65" shape-rendering="crispEdges"/><rect fill="#0d0d0d" x="36.6" y="635.9" width="1525" height="24.65" shape-rendering="crispEdges"/><rect fill="#121212" x="0" y="660.3" width="12.2" height="24.65" shape-rendering="crispEdges"/><rect fill="#121212" x="12.2" y="660.3" width="24.4" height="24.65" shape-rendering="crispEdges"/><rect fill="#0d0d0d" x="36.6" y="660.3" width="219.6" height="24.65" shape-rendering="crispEdges"/><rect fill="#0d0d0d" x="256.2" y="660.3" width="1305.4" height="24.65" shape-rendering="crispEdges"/><rect fill="#121212" x="0" y="684.7" width="12.2" height="24.65" shape-rendering="crispEdges"/><rect fill="#121212" x="12.2" y="684.7" width="24.4" height="24.65" shape-rendering="crispEdges"/><rect fill="#0d0d0d" x="36.6" y="684.7" width="1525" height="24.65" shape-rendering="crispEdges"/><rect fill="#121212" x="0" y="709.1" width="12.2" height="24.65" shape-rendering="crispEdges"/><rect fill="#121212" x="12.2" y="709.1" width="24.4" height="24.65" shape-rendering="crispEdges"/><rect fill="#0d0d0d" x="36.6" y="709.1" width="24.4" height="24.65" shape-rendering="crispEdges"/><rect fill="#0d0d0d" x="61" y="709.1" width="707.6" height="24.65" shape-rendering="crispEdges"/><rect fill="#0d0d0d" x="768.6" y="709.1" width="793" height="24.65" shape-rendering="crispEdges"/><rect fill="#121212" x="0" y="733.5" width="12.2" height="24.65" shape-rendering="crispEdges"/><rect fill="#121212" x="12.2" y="733.5" width="24.4" height="24.65" shape-rendering="crispEdges"/><rect fill="#0d0d0d" x="36.6" y="733.5" width="24.4" height="24.65" shape-rendering="crispEdges"/><rect fill="#0d0d0d" x="61" y="733.5" width="622.2" height="24.65" shape-rendering="crispEdges"/><rect fill="#0d0d0d" x="683.2" y="733.5" width="878.4" height="24.65" shape-rendering="crispEdges"/><rect fill="#121212" x="0" y="757.9" width="12.2" height="24.65" shape-rendering="crispEdges"/><rect fill="#121212" x="12.2" y="757.9" width="24.4" height="24.65" shape-rendering="crispEdges"/><rect fill="#0d0d0d" x="36.6" y="757.9" width="24.4" height="24.65" shape-rendering="crispEdges"/><rect fill="#0d0d0d" x="61" y="757.9" width="317.2" height="24.65" shape-rendering="crispEdges"/><rect fill="#0d0d0d" x="378.2" y="757.9" width="1183.4" height="24.65" shape-rendering="crispEdges"/><rect fill="#121212" x="0" y="782.3" width="12.2" height="24.65" shape-rendering="crispEdges"/><rect fill="#121212" x="12.2" y="782.3" width="1549.4" height="24.65" shape-rendering="crispEdges"/><rect fill="#121212" x="0" y="806.7" width="12.2" height="24.65" shape-rendering="crispEdges"/><rect fill="#121212" x="12.2" y="806.7" width="12.2" height="24.65" shape-rendering="crispEdges"/><rect fill="#121212" x="24.4" y="806.7" width="12.2" height="24.65" shape-rendering="crispEdges"/><rect fill="#e0e0e0" x="36.6" y="806.7" width="12.2" height="24.65" shape-rendering="crispEdges"/><rect fill="#000000" x="48.8" y="806.7" width="219.6" height="24.65" shape-rendering="crispEdges"/><rect fill="#000000" x="268.4" y="806.7" width="12.2" height="24.65" shape-rendering="crispEdges"/><rect fill="#000000" x="280.6" y="806.7" width="109.8" height="24.65" shape-rendering="crispEdges"/><rect fill="#000000" x="390.4" y="806.7" width="12.2" height="24.65" shape-rendering="crispEdges"/><rect fill="#000000" x="402.6" y="806.7" width="73.2" height="24.65" shape-rendering="crispEdges"/><rect fill="#000000" x="475.8" y="806.7" width="1085.8" height="24.65" shape-rendering="crispEdges"/>
    <g class="terminal-2422889674-matrix">
    <text class="terminal-2422889674-r1" x="0" y="20" textLength="134.2" clip-path="url(#terminal-2422889674-line-0)">██▓▓▒▒░░··&#160;</text><text class="terminal-2422889674-r2" x="1561.6" y="20" textLength="12.2" clip-path="url(#terminal-2422889674-line-0)">
</text><text class="terminal-2422889674-r1" x="0" y="44.4" textLength="12.2" clip-path="url(#terminal-2422889674-line-1)">│</text><text class="terminal-2422889674-r3" x="12.2" y="44.4" textLength="12.2" clip-path="url(#terminal-2422889674-line-1)">&gt;</text><text class="terminal-2422889674-r4" x="36.6" y="44.4" textLength="231.8" clip-path="url(#terminal-2422889674-line-1)">Simple&#160;test&#160;pattern</text><text class="terminal-2422889674-r2" x="1561.6" y="44.4" textLength="12.2" clip-path="url(#terminal-2422889674-line-1)">
</text><text class="terminal-2422889674-r1" x="0" y="68.8" textLength="12.2" clip-path="url(#terminal-2422889674-line-2)">│</text><text class="terminal-2422889674-r2" x="1561.6" y="68.8" textLength="12.2" clip-path="url(#terminal-2422889674-line-2)">
</text><text class="terminal-2422889674-r1" x="0" y="93.2" textLength="12.2" clip-path="url(#terminal-2422889674-line-3)">│</text><text class="terminal-2422889674-r4" x="12.2" y="93.2" textLength="12.2" clip-path="url(#terminal-2422889674-line-3)">✨</text><text class="terminal-2422889674-r4" x="36.6" y="93.2" textLength="512.4" clip-path="url(#terminal-2422889674-line-3)">I&#x27;ll&#160;create&#160;a&#160;simple&#160;test&#160;pattern&#160;for&#160;you:</text><text class="terminal-2422889674-r2" x="1561.6" y="93.2" textLength="12.2" clip-path="url(#terminal-2422889674-line-3)">
</text><text class="terminal-2422889674-r1" x="0" y="117.6" textLength="12.2" clip-path="url(#terminal-2422889674-line-4)">│</text><text class="terminal-2422889674-r2" x="1561.6" y="117.6" textLength="12.2" clip-path="url(#terminal-2422889674-line-4)">
</text><text class="terminal-2422889674-r1" x="0" y="142" textLength="12.2" clip-path="url(#terminal-2422889674-line-5)">│</text><text class="terminal-2422889674-r1" x="12.2" y="142" textLength="12.2" clip-path="url(#terminal-2422889674-line-5)">]</text><text class="terminal-2422889674-r5" x="36.6" y="142" textLength="366" clip-path="url(#terminal-2422889674-line-5)">#&#160;Create&#160;a&#160;simple&#160;test&#160;pattern</text><text class="terminal-2422889674-r2" x="1561.6" y="142" textLength="12.2" clip-path="url(#terminal-2422889674-line-5)">
</text><text class="terminal-2422889674-r1" x="0" y="166.4" textLength="12.2" clip-path="url(#terminal-2422889674-line-6)">│</text><text class="terminal-2422889674-r6" x="36.6" y="166.4" textLength="36.6" clip-path="url(#terminal-2422889674-line-6)">for</text><text class="terminal-2422889674-r8" x="85.4" y="166.4" textLength="12.2" clip-path="url(#terminal-2422889674-line-6)">i</text><text class="terminal-2422889674-r9" x="109.8" y="166.4" textLength="24.4" clip-path="url(#terminal-2422889674-line-6)">in</text><text class="terminal-2422889674-r6" x="146.4" y="166.4" textLength="61" clip-path="url(#terminal-2422889674-line-6)">range</text><text class="terminal-2422889674-r7" x="207.4" y="166.4" textLength="12.2" clip-path="url(#terminal-2422889674-line-6)">(</text><text class="terminal-2422889674-r6" x="219.6" y="166.4" textLength="12.2" clip-path="url(#terminal-2422889674-line-6)">1</text><text class="terminal-2422889674-r7" x="231.8" y="166.4" textLength="24.4" clip-path="url(#terminal-2422889674-line-6)">,&#160;</text><text class="terminal-2422889674-r6" x="256.2" y="166.4" textLength="12.2" clip-path="url(#terminal-2422889674-line-6)">6</text><text class="terminal-2422889674-r7" x="268.4" y="166.4" textLength="24.4" clip-path="url(#terminal-2422889674-line-6)">):</text><text class="terminal-2422889674-r2" x="1561.6" y="166.4" textLength="12.2" clip-path="url(#terminal-2422889674-line-6)">
</text><text class="terminal-2422889674-r1" x="0" y="190.8" textLength="12.2" clip-path="url(#terminal-2422889674-line-7)">│</text><text class="terminal-2422889674-r6" x="85.4" y="190.8" textLength="61" clip-path="url(#terminal-2422889674-line-7)">print</text><text class="terminal-2422889674-r7" x="146.4" y="190.8" textLength="12.2" clip-path="url(#terminal-2422889674-line-7)">(</text><text class="terminal-2422889674-r10" x="158.6" y="190.8" textLength="12.2" clip-path="url(#terminal-2422889674-line-7)">&#x27;</text><text class="terminal-2422889674-r10" x="170.8" y="190.8" textLength="12.2" clip-path="url(#terminal-2422889674-line-7)">█</text><text class="terminal-2422889674-r10" x="183" y="190.8" textLength="12.2" clip-path="url(#terminal-2422889674-line-7)">&#x27;</text><text class="terminal-2422889674-r11" x="207.4" y="190.8" textLength="12.2" clip-path="url(#terminal-2422889674-line-7)">*</text><text class="terminal-2422889674-r8" x="231.8" y="190.8" textLength="12.2" clip-path="url(#terminal-2422889674-line-7)">i</text><text class="terminal-2422889674-r7" x="244" y="190.8" textLength="12.2" clip-path="url(#terminal-2422889674-line-7)">)</text><text class="terminal-2422889674-r2" x="1561.6" y="190.8" textLength="12.2" clip-path="url(#terminal-2422889674-line-7)">
</text><text class="terminal-2422889674-r1" x="0" y="215.2" textLength="12.2" clip-path="url(#terminal-2422889674-line-8)">│</text><text class="terminal-2422889674-r2" x="1561.6" y="215.2" textLength="12.2" clip-path="url(#terminal-2422889674-line-8)">
</text><text class="terminal-2422889674-r1" x="0" y="239.6" textLength="12.2" clip-path="url(#terminal-2422889674-line-9)">│</text><text class="terminal-2422889674-r4" x="12.2" y="239.6" textLength="12.2" clip-path="url(#terminal-2422889674-line-9)">✨</text><text class="terminal-2422889674-r4" x="36.6" y="239.6" textLength="1476.2" clip-path="url(#terminal-2422889674-line-9)">This&#160;will&#160;display&#160;a&#160;growing&#160;bar&#160;pattern.&#160;Would&#160;you&#160;like&#160;a&#160;different&#160;type&#160;of&#160;test&#160;pattern&#160;(checkerboard,&#160;gradient,&#160;etc.)?,</text><text class="terminal-2422889674-r2" x="1561.6" y="239.6" textLength="12.2" clip-path="url(#terminal-2422889674-line-9)">
</text><text class="terminal-2422889674-r1" x="0" y="264" textLength="12.2" clip-path="url(#terminal-2422889674-line-10)">│</text><text class="terminal-2422889674-r4" x="36.6" y="264" textLength="73.2" clip-path="url(#terminal-2422889674-line-10)">etc.)?</text><text class="terminal-2422889674-r2" x="1561.6" y="264" textLength="12.2" clip-path="url(#terminal-2422889674-line-10)">
</text><text class="terminal-2422889674-r1" x="0" y="288.4" textLength="12.2" clip-path="url(#terminal-2422889674-line-11)">│</text><text class="terminal-2422889674-r2" x="1561.6" y="288.4" textLength="12.2" clip-path="url(#terminal-2422889674-line-11)">
</text><text class="terminal-2422889674-r1" x="0" y="312.8" textLength="12.2" clip-path="url(#terminal-2422889674-line-12)">│</text><text class="terminal-2422889674-r3" x="12.2" y="312.8" textLength="12.2" clip-path="url(#terminal-2422889674-line-12)">&gt;</text><text class="terminal-2422889674-r4" x="36.6" y="312.8" textLength="109.8" clip-path="url(#terminal-2422889674-line-12)">Executed:</text><text class="terminal-2422889674-r2" x="1561.6" y="312.8" textLength="12.2" clip-path="url(#terminal-2422889674-line-12)">
</text><text class="terminal-2422889674-r1" x="0" y="337.2" textLength="12.2" clip-path="url(#terminal-2422889674-line-13)">│</text><text class="terminal-2422889674-r2" x="1561.6" y="337.2" textLength="12.2" clip-path="url(#terminal-2422889674-line-13)">
</text><text class="terminal-2422889674-r1" x="0" y="361.6" textLength="12.2" clip-path="url(#terminal-2422889674-line-14)">│</text><text class="terminal-2422889674-r5" x="36.6" y="361.6" textLength="366" clip-path="url(#terminal-2422889674-line-14)">#&#160;Create&#160;a&#160;simple&#160;test&#160;pattern</text><text class="terminal-2422889674-r2" x="1561.6" y="361.6" textLength="12.2" clip-path="url(#terminal-2422889674-line-14)">
</text><text class="terminal-2422889674-r1" x="0" y="386" textLength="12.2" clip-path="url(#terminal-2422889674-line-15)">│</text><text class="terminal-2422889674-r6" x="36.6" y="386" textLength="36.6" clip-path="url(#terminal-2422889674-line-15)">for</text><text class="terminal-2422889674-r8" x="85.4" y="386" textLength="12.2" clip-path="url(#terminal-2422889674-line-15)">i</text><text class="terminal-2422889674-r9" x="109.8" y="386" textLength="24.4" clip-path="url(#terminal-2422889674-line-15)">in</text><text class="terminal-2422889674-r6" x="146.4" y="386" textLength="61" clip-path="url(#terminal-2422889674-line-15)">range</text><text class="terminal-2422889674-r7" x="207.4" y="386" textLength="12.2" clip-path="url(#terminal-2422889674-line-15)">(</text><text class="terminal-2422889674-r6" x="219.6" y="386" textLength="12.2" clip-path="url(#terminal-2422889674-line-15)">1</text><text class="terminal-2422889674-r7" x="231.8" y="386" textLength="24.4" clip-path="url(#terminal-2422889674-line-15)">,&#160;</text><text class="terminal-2422889674-r6" x="256.2" y="386" textLength="12.2" clip-path="url(#terminal-2422889674-line-15)">6</text><text class="terminal-2422889674-r7" x="268.4" y="386" textLength="24.4" clip-path="url(#terminal-2422889674-line-15)">):</text><text class="terminal-2422889674-r2" x="1561.6" y="386" textLength="12.2" clip-path="url(#terminal-2422889674-line-15)">
</text><text class="terminal-2422889674-r1" x="0" y="410.4" textLength="12.2" clip-path="url(#terminal-2422889674-line-16)">│</text><text class="terminal-2422889674-r6" x="85.4" y="410.4" textLength="61" clip-path="url(#terminal-2422889674-line-16)">print</text><text class="terminal-2422889674-r7" x="146.4" y="410.4" textLength="12.2" clip-path="url(#terminal-2422889674-line-16)">(</text><text class="terminal-2422889674-r10" x="158.6" y="410.4" textLength="12.2" clip-path="url(#terminal-2422889674-line-16)">&#x27;</text><text class="terminal-2422889674-r10" x="170.8" y="410.4" textLength="12.2" clip-path="url(#terminal-2422889674-line-16)">█</text><text class="terminal-2422889674-r10" x="183" y="410.4" textLength="12.2" clip-path="url(#terminal-2422889674-line-16)">&#x27;</text><text class="terminal-2422889674-r11" x="207.4" y="410.4" textLength="12.2" clip-path="url(#terminal-2422889674-line-16)">*</text><text class="terminal-2422889674-r8" x="231.8" y="410.4" textLength="12.2" clip-path="url(#terminal-2422889674-line-16)">i</text><text class="terminal-2422889674-r7" x="244" y="410.4" textLength="12.2" clip-path="url(#terminal-2422889674-line-16)">)</text><text class="terminal-2422889674-r2" x="1561.6" y="410.4" textLength="12.2" clip-path="url(#terminal-2422889674-line-16)">
</text><text class="terminal-2422889674-r1" x="0" y="434.8" textLength="12.2" clip-path="url(#terminal-2422889674-line-17)">│</text><text class="terminal-2422889674-r2" x="1561.6" y="434.8" textLength="12.2" clip-path="url(#terminal-2422889674-line-17)">
</text><text class="terminal-2422889674-r1" x="0" y="459.2" textLength="12.2" clip-path="url(#terminal-2422889674-line-18)">│</text><text class="terminal-2422889674-r4" x="36.6" y="459.2" textLength="12.2" clip-path="url(#terminal-2422889674-line-18)">█</text><text class="terminal-2422889674-r2" x="1561.6" y="459.2" textLength="12.2" clip-path="url(#terminal-2422889674-line-18)">
</text><text class="terminal-2422889674-r1" x="0" y="483.6" textLength="12.2" clip-path="url(#terminal-2422889674-line-19)">│</text><text class="terminal-2422889674-r4" x="36.6" y="483.6" textLength="24.4" clip-path="url(#terminal-2422889674-line-19)">██</text><text class="terminal-2422889674-r2" x="1561.6" y="483.6" textLength="12.2" clip-path="url(#terminal-2422889674-line-19)">
</text><text class="terminal-2422889674-r1" x="0" y="508" textLength="12.2" clip-path="url(#terminal-2422889674-line-20)">│</text><text class="terminal-2422889674-r4" x="36.6" y="508" textLength="36.6" clip-path="url(#terminal-2422889674-line-20)">███</text><text class="terminal-2422889674-r2" x="1561.6" y="508" textLength="12.2" clip-path="url(#terminal-2422889674-line-20)">
</text><text class="terminal-2422889674-r1" x="0" y="532.4" textLength="12.2" clip-path="url(#terminal-2422889674-line-21)">│</text><text class="terminal-2422889674-r4" x="36.6" y="532.4" textLength="48.8" clip-path="url(#terminal-2422889674-line-21)">████</text><text class="terminal-2422889674-r2" x="1561.6" y="532.4" textLength="12.2" clip-path="url(#terminal-2422889674-line-21)">
</text><text class="terminal-2422889674-r1" x="0" y="556.8" textLength="12.2" clip-path="url(#terminal-2422889674-line-22)">│</text><text class="terminal-2422889674-r4" x="36.6" y="556.8" textLength="61" clip-path="url(#terminal-2422889674-line-22)">█████</text><text class="terminal-2422889674-r2" x="1561.6" y="556.8" textLength="12.2" clip-path="url(#terminal-2422889674-line-22)">
</text><text class="terminal-2422889674-r1" x="0" y="581.2" textLength="12.2" clip-path="url(#terminal-2422889674-line-23)">│</text><text class="terminal-2422889674-r2" x="1561.6" y="581.2" textLength="12.2" clip-path="url(#terminal-2422889674-line-23)">
</text><text class="terminal-2422889674-r1" x="0" y="605.6" textLength="12.2" clip-path="url(#terminal-2422889674-line-24)">│</text><text class="terminal-2422889674-r4" x="12.2" y="605.6" textLength="12.2" clip-path="url(#terminal-2422889674-line-24)">✨</text><text class="terminal-2422889674-r4" x="36.6" y="605.6" textLength="1500.6" clip-path="url(#terminal-2422889674-line-24)">Great!&#160;The&#160;test&#160;pattern&#160;executed&#160;successfully.&#160;The&#160;output&#160;shows&#160;a&#160;simple&#160;ascending&#160;bar&#160;pattern&#160;where&#160;each&#160;line&#160;has&#160;one&#160;more</text><text class="terminal-2422889674-r2" x="1561.6" y="605.6" textLength="12.2" clip-path="url(#terminal-2422889674-line-24)">
</text><text class="terminal-2422889674-r1" x="0" y="630" textLength="12.2" clip-path="url(#terminal-2422889674-line-25)">│</text><text class="terminal-2422889674-r4" x="36.6" y="630" textLength="475.8" clip-path="url(#terminal-2422889674-line-25)">block&#160;character&#160;than&#160;the&#160;previous&#160;line.</text><text class="terminal-2422889674-r2" x="1561.6" y="630" textLength="12.2" clip-path="url(#terminal-2422889674-line-25)">
</text><text class="terminal-2422889674-r1" x="0" y="654.4" textLength="12.2" clip-path="url(#terminal-2422889674-line-26)">│</text><text class="terminal-2422889674-r2" x="1561.6" y="654.4" textLength="12.2" clip-path="url(#terminal-2422889674-line-26)">
</text><text class="terminal-2422889674-r1" x="0" y="678.8" textLength="12.2" clip-path="url(#terminal-2422889674-line-27)">│</text><text class="terminal-2422889674-r4" x="36.6" y="678.8" textLength="219.6" clip-path="url(#terminal-2422889674-line-27)">Would&#160;you&#160;like&#160;to:</text><text class="terminal-2422889674-r2" x="1561.6" y="678.8" textLength="12.2" clip-path="url(#terminal-2422889674-line-27)">
</text><text class="terminal-2422889674-r1" x="0" y="703.2" textLength="12.2" clip-path="url(#terminal-2422889674-line-28)">│</text><text class="terminal-2422889674-r2" x="1561.6" y="703.2" textLength="12.2" clip-path="url(#terminal-2422889674-line-28)">
</text><text class="terminal-2422889674-r1" x="0" y="727.6" textLength="12.2" clip-path="url(#terminal-2422889674-line-29)">│</text><text class="terminal-2422889674-r8" x="36.6" y="727.6" textLength="24.4" clip-path="url(#terminal-2422889674-line-29)">•&#160;</text><text class="terminal-2422889674-r4" x="61" y="727.6" textLength="707.6" clip-path="url(#terminal-2422889674-line-29)">Create&#160;a&#160;different&#160;pattern&#160;(checkerboard,&#160;triangle,&#160;etc.)?</text><text class="terminal-2422889674-r2" x="1561.6" y="727.6" textLength="12.2" clip-path="url(#terminal-2422889674-line-29)">
</text><text class="terminal-2422889674-r1" x="0" y="752" textLength="12.2" clip-path="url(#terminal-2422889674-line-30)">│</text><text class="terminal-2422889674-r8" x="36.6" y="752" textLength="24.4" clip-path="url(#terminal-2422889674-line-30)">•&#160;</text><text class="terminal-2422889674-r4" x="61" y="752" textLength="622.2" clip-path="url(#terminal-2422889674-line-30)">Modify&#160;this&#160;one&#160;(different&#160;size,&#160;characters,&#160;etc.)?</text><text class="terminal-2422889674-r2" x="1561.6" y="752" textLength="12.2" clip-path="url(#terminal-2422889674-line-30)">
</text><text class="terminal-2422889674-r1" x="0" y="776.4" textLength="12.2" clip-path="url(#terminal-2422889674-line-31)">│</text><text class="terminal-2422889674-r8" x="36.6" y="776.4" textLength="24.4" clip-path="url(#terminal-2422889674-line-31)">•&#160;</text><text class="terminal-2422889674-r4" x="61" y="776.4" textLength="317.2" clip-path="url(#terminal-2422889674-line-31)">Test&#160;something&#160;else?&#160;else?</text><text class="terminal-2422889674-r2" x="1561.6" y="776.4" textLength="12.2" clip-path="url(#terminal-2422889674-line-31)">
</text><text class="terminal-2422889674-r1" x="0" y="800.8" textLength="12.2" clip-path="url(#terminal-2422889674-line-32)">│</text><text class="terminal-2422889674-r2" x="1561.6" y="800.8" textLength="12.2" clip-path="url(#terminal-2422889674-line-32)">
</text><text class="terminal-2422889674-r1" x="0" y="825.2" textLength="12.2" clip-path="url(#terminal-2422889674-line-33)">│</text><text class="terminal-2422889674-r1" x="12.2" y="825.2" textLength="12.2" clip-path="url(#terminal-2422889674-line-33)">&gt;</text><text class="terminal-2422889674-r12" x="36.6" y="825.2" textLength="12.2" clip-path="url(#terminal-2422889674-line-33)">a</text><text class="terminal-2422889674-r13" x="48.8" y="825.2" textLength="219.6" clip-path="url(#terminal-2422889674-line-33)">i&#160;prompt...&#160;&#160;&#160;&#160;&#160;&#160;&#160;</text><text class="terminal-2422889674-r14" x="268.4" y="825.2" textLength="12.2" clip-path="url(#terminal-2422889674-line-33)">]</text><text class="terminal-2422889674-r13" x="280.6" y="825.2" textLength="109.8" clip-path="url(#terminal-2422889674-line-33)">&#160;python&#160;&#160;</text><text class="terminal-2422889674-r14" x="390.4" y="825.2" textLength="12.2" clip-path="url(#terminal-2422889674-line-33)">$</text><text class="terminal-2422889674-r13" x="402.6" y="825.2" textLength="73.2" clip-path="url(#terminal-2422889674-line-33)">&#160;shell</text>
    </g>
    </g>
</svg>
